<svg xmlns="http://www.w3.org/2000/svg" viewBox="0 0 500 500"><g id="freepik--background-complete--inject-328"><rect x="416.78" y="398.49" width="33.12" height="0.25" style="fill:#ebebeb"></rect><rect x="322.53" y="401.21" width="8.69" height="0.25" style="fill:#ebebeb"></rect><rect x="396.59" y="389.21" width="19.19" height="0.25" style="fill:#ebebeb"></rect><rect x="52.46" y="390.89" width="43.19" height="0.25" style="fill:#ebebeb"></rect><rect x="104.56" y="390.89" width="6.33" height="0.25" style="fill:#ebebeb"></rect><rect x="131.47" y="395.11" width="93.68" height="0.25" style="fill:#ebebeb"></rect><path d="M237,337.8H43.92a5.71,5.71,0,0,1-5.71-5.71V60.66A5.71,5.71,0,0,1,43.92,55H237a5.71,5.71,0,0,1,5.71,5.71V332.09A5.71,5.71,0,0,1,237,337.8ZM43.92,55.2a5.47,5.47,0,0,0-5.46,5.46V332.09a5.47,5.47,0,0,0,5.46,5.46H237a5.47,5.47,0,0,0,5.46-5.46V60.66A5.47,5.47,0,0,0,237,55.2Z" style="fill:#ebebeb"></path><path d="M453.31,337.8H260.21a5.72,5.72,0,0,1-5.71-5.71V60.66A5.72,5.72,0,0,1,260.21,55h193.1A5.71,5.71,0,0,1,459,60.66V332.09A5.71,5.71,0,0,1,453.31,337.8ZM260.21,55.2a5.47,5.47,0,0,0-5.46,5.46V332.09a5.47,5.47,0,0,0,5.46,5.46h193.1a5.47,5.47,0,0,0,5.46-5.46V60.66a5.47,5.47,0,0,0-5.46-5.46Z" style="fill:#ebebeb"></path><rect y="382.4" width="500" height="0.25" style="fill:#ebebeb"></rect><path d="M211.07,302.35V278.81l-42.75,23.54V278.81l-47.78,26.31V382.7H253.82V278.81Zm-64.16,47.92h-10v-10h10Zm0-15h-10v-10h10Zm14.38,15h-10v-10h10Zm0-15h-10v-10h10Zm23.72,15H175v-10h10Zm0-15H175v-10h10Zm14.38,15h-10v-10h10Zm0-15h-10v-10h10Zm23.72,15h-10v-10h10Zm0-15h-10v-10h10Zm14.38,15h-10v-10h10Zm0-15h-10v-10h10Z" style="fill:#ebebeb"></path><polygon points="108.11 382.7 78.69 382.7 82.7 212.82 104.1 212.82 108.11 382.7" style="fill:#f5f5f5"></polygon><polygon points="82.28 230.69 81.82 249.87 104.74 239.85 104.3 221.06 82.28 230.69" style="fill:#e0e0e0"></polygon><polygon points="80.4 310.22 79.95 329.4 106.58 317.75 106.14 298.96 80.4 310.22" style="fill:#e0e0e0"></polygon><polygon points="107.06 337.91 79.46 349.98 79.01 369.16 107.5 356.69 107.06 337.91" style="fill:#e0e0e0"></polygon><polygon points="81.34 270.46 80.89 289.63 105.66 278.8 105.22 260.01 81.34 270.46" style="fill:#e0e0e0"></polygon><path d="M339.91,141.36a20.16,20.16,0,0,0-.31-3.5l5.31-4.79a25.47,25.47,0,0,0-1.41-3.41l-7.15.37a19.65,19.65,0,0,0-4.94-4.94l.37-7.15a24.94,24.94,0,0,0-3.41-1.41l-4.79,5.31a19.86,19.86,0,0,0-7,0l-4.79-5.31a24.94,24.94,0,0,0-3.41,1.41l.36,7.15a19.78,19.78,0,0,0-4.93,4.94l-7.15-.37a25.47,25.47,0,0,0-1.41,3.41l5.31,4.79a19.86,19.86,0,0,0,0,7l-5.31,4.79a24.94,24.94,0,0,0,1.41,3.41l7.15-.36a19.91,19.91,0,0,0,4.93,4.93l-.36,7.15a24.94,24.94,0,0,0,3.41,1.41l4.79-5.31a19.86,19.86,0,0,0,7,0l4.79,5.31a25.47,25.47,0,0,0,3.41-1.41l-.37-7.15a19.78,19.78,0,0,0,4.94-4.93l7.15.36a24.94,24.94,0,0,0,1.41-3.41l-5.31-4.79A20.13,20.13,0,0,0,339.91,141.36ZM320.08,152.6a11.24,11.24,0,1,1,11.25-11.24A11.25,11.25,0,0,1,320.08,152.6Z" style="fill:#f0f0f0"></path><path d="M437.15,153.24a11.78,11.78,0,0,0-.2-2.15l3.27-3a15.34,15.34,0,0,0-.87-2.09l-4.39.22a12.33,12.33,0,0,0-3-3l.23-4.4a16,16,0,0,0-2.1-.87l-2.95,3.27a12.2,12.2,0,0,0-4.29,0L419.86,138a16,16,0,0,0-2.1.87l.23,4.4a12.16,12.16,0,0,0-3,3l-4.39-.22a15.34,15.34,0,0,0-.87,2.09l3.26,3a12.26,12.26,0,0,0,0,4.3l-3.26,3a15.34,15.34,0,0,0,.87,2.09l4.39-.22a12.16,12.16,0,0,0,3,3l-.23,4.4a19.32,19.32,0,0,0,2.1.87l2.95-3.27a12.2,12.2,0,0,0,4.29,0l2.95,3.27a19.32,19.32,0,0,0,2.1-.87l-.23-4.4a12.33,12.33,0,0,0,3-3l4.39.22a15.34,15.34,0,0,0,.87-2.09l-3.27-3A11.78,11.78,0,0,0,437.15,153.24Z" style="fill:#f5f5f5"></path><path d="M407,127.19a29.19,29.19,0,0,0-.44-5l7.57-6.84a37,37,0,0,0-2-4.86L402,111a28.41,28.41,0,0,0-7.05-7l.53-10.19a36.26,36.26,0,0,0-4.86-2l-6.84,7.57a28.4,28.4,0,0,0-10,0l-6.84-7.57a36.26,36.26,0,0,0-4.86,2l.52,10.19a28.54,28.54,0,0,0-7,7l-10.19-.52a37,37,0,0,0-2,4.86l7.57,6.84a28.4,28.4,0,0,0,0,10L343.35,139a37.49,37.49,0,0,0,2,4.85l10.19-.52a28.37,28.37,0,0,0,7,7l-.52,10.2a37.63,37.63,0,0,0,4.86,2l6.84-7.58a27.78,27.78,0,0,0,10,0l6.84,7.58a37.63,37.63,0,0,0,4.86-2l-.53-10.2a28.24,28.24,0,0,0,7.05-7l10.19.52a37.49,37.49,0,0,0,2-4.85l-7.57-6.84A29.19,29.19,0,0,0,407,127.19Zm-28.27,16a16,16,0,1,1,16-16A16,16,0,0,1,378.75,143.22Z" style="fill:#f5f5f5"></path><polygon points="411.45 295.07 408.55 382.7 416.15 382.7 413.26 295.07 411.45 295.07" style="fill:#e0e0e0"></polygon><path d="M411.54,314.24S369.85,355.53,379.38,368c2.54,3.31,16.08-4.58,16.08-4.58s2.48,7.41,4.73,7.91c4.17.92,14.16-9.58,14.16-9.58s8.26,10.14,12.07,9.58c2.89-.43,6.66-9.58,6.66-9.58s12.25,8.07,14.58,5C457.28,354,411.54,314.24,411.54,314.24Z" style="fill:#ebebeb"></path><path d="M411.79,292.08s-36.2,35.86-27.93,46.64c2.21,2.88,14-4,14-4s2.16,6.44,4.11,6.87c3.62.81,12.29-8.31,12.29-8.31s7.18,8.8,10.49,8.31c2.5-.37,5.78-8.31,5.78-8.31s10.64,7,12.66,4.34C451.51,326.62,411.79,292.08,411.79,292.08Z" style="fill:#ebebeb"></path><path d="M412.1,276.18s-29.5,29.22-22.76,38c1.8,2.35,11.38-3.24,11.38-3.24s1.76,5.25,3.36,5.6c2.95.66,10-6.77,10-6.77s5.85,7.17,8.55,6.77c2-.3,4.71-6.77,4.71-6.77s8.67,5.7,10.31,3.53C444.47,304.32,412.1,276.18,412.1,276.18Z" style="fill:#f0f0f0"></path><path d="M417.11,266.38a6.44,6.44,0,0,0-9.22.3c-6.69,7.35-18.17,21.26-14.19,26.46,1.48,1.92,9.33-2.66,9.33-2.66s1.44,4.3,2.74,4.59c2.42.54,8.21-5.55,8.21-5.55s4.79,5.87,7,5.55c1.68-.25,3.86-5.55,3.86-5.55s7.1,4.67,8.45,2.89C437.35,287.07,424.46,273.44,417.11,266.38Z" style="fill:#f5f5f5"></path><polygon points="320.08 258.48 315.98 382.7 326.75 382.7 322.65 258.48 320.08 258.48" style="fill:#e0e0e0"></polygon><path d="M320.21,285.65s-59.09,58.53-45.59,76.14c3.61,4.7,22.8-6.5,22.8-6.5s3.52,10.51,6.71,11.22c5.91,1.31,20.07-13.58,20.07-13.58s11.71,14.37,17.11,13.58c4.09-.6,9.44-13.58,9.44-13.58s17.36,11.43,20.66,7.09C385.05,342,320.21,285.65,320.21,285.65Z" style="fill:#ebebeb"></path><path d="M320.57,254.24S269.26,305.07,281,320.36c3.13,4.08,19.8-5.64,19.8-5.64s3.06,9.12,5.83,9.74c5.13,1.13,17.42-11.79,17.42-11.79s10.17,12.48,14.86,11.79c3.56-.53,8.2-11.79,8.2-11.79s15.08,9.93,17.94,6.15C376.88,303.2,320.57,254.24,320.57,254.24Z" style="fill:#ebebeb"></path><path d="M321,231.7s-41.82,41.42-32.26,53.88c2.55,3.32,16.13-4.6,16.13-4.6s2.5,7.44,4.75,7.94c4.19.93,14.2-9.61,14.2-9.61s8.29,10.17,12.12,9.61c2.89-.43,6.68-9.61,6.68-9.61s12.28,8.09,14.62,5C366.9,271.6,321,231.7,321,231.7Z" style="fill:#f0f0f0"></path><path d="M328.1,217.81a9.11,9.11,0,0,0-13.05.43c-9.5,10.41-25.77,30.14-20.12,37.5,2.09,2.73,13.22-3.76,13.22-3.76s2,6.09,3.89,6.5c3.43.76,11.63-7.87,11.63-7.87s6.8,8.33,9.93,7.87c2.37-.35,5.47-7.87,5.47-7.87s10.07,6.63,12,4.11C356.8,247.14,338.53,227.82,328.1,217.81Z" style="fill:#f5f5f5"></path></g><g id="freepik--Shadow--inject-328"><ellipse id="freepik--path--inject-328" cx="250" cy="412.39" rx="196.51" ry="11.32" style="fill:#f5f5f5"></ellipse></g><g id="freepik--Earth--inject-328"><circle cx="141.89" cy="128.77" r="62.05" style="fill:#92E3A9"></circle><circle cx="141.89" cy="128.77" r="62.05" style="fill:#fff;opacity:0.2"></circle><path d="M159.59,148.57h0a1.56,1.56,0,0,1-1.3-.49l-1.83-2a1.52,1.52,0,0,0-1.05-.5l-2.42-.13a1.52,1.52,0,0,1-.51-.12L149.3,144a1.55,1.55,0,0,0-1.06-.05l-2.79.88a1.5,1.5,0,0,1-.47.08l-3.11,0a1.57,1.57,0,0,0-1.11.46l-2.65,2.71a1.53,1.53,0,0,1-.83.44l-1.51.26a1.54,1.54,0,0,1-1.32-.39l-.84-.8-1-2.4a.45.45,0,0,0-.52-.27l-2,.43a.45.45,0,0,1-.51-.63h0l.65-2.08,0-2.37-.7-.24-3.83,3.67h0a.81.81,0,0,1-1.35-.48l-.74-5.07a1.27,1.27,0,0,1,1-1.44l1.76-.32a1.27,1.27,0,0,0,.89-.65h0a1.28,1.28,0,0,1,1.66-.55l2.9,1.33a1.44,1.44,0,0,0,.42.11l1,.09a1.27,1.27,0,0,0,1.36-1.56l-.39-1.61a1.3,1.3,0,0,1,.13-.91l2.27-4.12.06-.14,1.44-3.63a1.1,1.1,0,0,1,.23-.37l2.58-2.92,1.16-2.86,6.48-3.13-1.58-1.18-.21-1A2.56,2.56,0,0,1,148,110.6l1.93-1.25a2.57,2.57,0,0,0,.69-3.63h0l-2.15-3.36a2.51,2.51,0,0,0-1.45-1.08l-1.87-.54a3.66,3.66,0,0,1-.46-.18l-3.36-1.72a2.55,2.55,0,0,0-3.37,1l-1.37,2.33-.09.17-1.27,2.58a2.55,2.55,0,0,1-3.36,1.2l-.29-.13a2,2,0,0,1-.32-.18l-2.36-1.52a2.55,2.55,0,0,1-.63-3.72l.88-1.13a1.93,1.93,0,0,1,.31-.33l2.81-2.53,1.48-1.44a2.36,2.36,0,0,1,.54-.4l.93-.51a2.57,2.57,0,0,0,1.23-2.88l-.23-.9a2.56,2.56,0,0,0-2.36-1.91l-.78,0a2.78,2.78,0,0,1-.69-.12L131,87.9a2.56,2.56,0,0,0-2.46.48l-1.65,1.4a2.57,2.57,0,0,1-1.72.61L120,90.25a2.24,2.24,0,0,1-.52-.06L114.3,89a2.39,2.39,0,0,0-1,0l-7.76,1.17a2.48,2.48,0,0,1-1.15-.09L101,88.93a2.62,2.62,0,0,0-1.36-.05l-1.31.31a2.57,2.57,0,0,0-1.79,1.54L91.5,103.35a2.32,2.32,0,0,0-.17.78l-.54,7.8v4.24h0a.58.58,0,0,0,1.09.35l2.46-4.66a2.58,2.58,0,0,1,.41-.57L95,111a2.56,2.56,0,0,1,4.17.69l3.24,7,1.88,1.46-1.16,9.08a1.24,1.24,0,0,0,.08.63l3.08,7.7a1.2,1.2,0,0,0,.38.51l7.59,6.17,3.33,4.14,6,.51,2.54.39,3,.27,2.59,1.25,2.55,1.07.5-.11a1.55,1.55,0,0,1,1.87,1.43l0,.72a1.49,1.49,0,0,1-.06.51l-.91,3.09a1.51,1.51,0,0,0,.2,1.29l1.93,2.89.16.2,3.34,3.53a1.51,1.51,0,0,0,.73.43l1.91.51a1.52,1.52,0,0,1,1.13,1.25l.4,2.57.43,3.54,0,.16,1,4.31a.88.88,0,0,0,0,.15l.47,1.36a1.49,1.49,0,0,0,.62.78l.59.39a1.58,1.58,0,0,0,1,.24l2-.18a1.54,1.54,0,0,0,1.3-2.09h0a1.45,1.45,0,0,1-.1-.41l-.06-.71a1.44,1.44,0,0,1,.16-.84l.87-1.7a1.57,1.57,0,0,1,.61-.64l1-.57a1.54,1.54,0,0,0,.5-.45L157,172l.1-.13,1.41-1.62a1.09,1.09,0,0,0,.13-.17l1.46-2.24a1.43,1.43,0,0,0,.21-.49l.5-2.19a1.53,1.53,0,0,1,.5-.82l3-2.62a1.62,1.62,0,0,0,.48-.75l1.86-6.68a2.33,2.33,0,0,1,.11-.28l0-.08a1.48,1.48,0,0,0,.13-.35l.49-2.16a1.53,1.53,0,0,0-.9-1.76l-.09,0A14.11,14.11,0,0,0,159.59,148.57ZM91.42,113.36v0Zm18,27.25.1,0Z" style="fill:#92E3A9"></path><path d="M176.22,77.08l-2,.52a1.63,1.63,0,0,1-1.36.52l-6.18-.68a1.59,1.59,0,0,0-.72.08l-4.5,1.63a1.44,1.44,0,0,0-.42.23l-1.75,1.33a1.6,1.6,0,0,0,.17,2.66l1,.6.18.12,5.23,4a1.61,1.61,0,0,1,.63,1.27l0,4.74a1.61,1.61,0,0,0,.53,1.19l5.66,5.15a1.6,1.6,0,0,0,2.56-.6l.13-.32a1.55,1.55,0,0,1,.61-.75l5.87-3.88a.15.15,0,0,1,.07,0l5.57-2.42a.4.4,0,0,0,.25-.42.42.42,0,0,1,.77-.28s2.93,3,2.34,3.94c0,.06-3.53,1.71-3.53,1.71a.43.43,0,0,0,.11.8s4.53.13,5.68,1c1.47,1.12,3.15,6.69,3.15,6.69a.42.42,0,0,1-.11.5l-.25.22-.08.05-.19.1a.43.43,0,0,0-.16.61l2,3a.37.37,0,0,1,.05.11l1.23,3.92h0l-2.27,2.6a.43.43,0,0,0-.1.36l1.11,5.55a.38.38,0,0,1-.07.31s-4,1.62-3.19,5.73c.43,2.21,6.76,3.56,9.5,4,.1-1.4.15-2.81.15-4.24A62,62,0,0,0,176.22,77.08Z" style="fill:#92E3A9"></path><path d="M159.59,148.57h0a1.56,1.56,0,0,1-1.3-.49l-1.83-2a1.52,1.52,0,0,0-1.05-.5l-2.42-.13a1.52,1.52,0,0,1-.51-.12L149.3,144a1.55,1.55,0,0,0-1.06-.05l-2.79.88a1.5,1.5,0,0,1-.47.08l-3.11,0a1.57,1.57,0,0,0-1.11.46l-2.65,2.71a1.53,1.53,0,0,1-.83.44l-1.51.26a1.54,1.54,0,0,1-1.32-.39l-.84-.8-1-2.4a.45.45,0,0,0-.52-.27l-2,.43a.45.45,0,0,1-.51-.63h0l.65-2.08,0-2.37-.7-.24-3.83,3.67h0a.81.81,0,0,1-1.35-.48l-.74-5.07a1.27,1.27,0,0,1,1-1.44l1.76-.32a1.27,1.27,0,0,0,.89-.65h0a1.28,1.28,0,0,1,1.66-.55l2.9,1.33a1.44,1.44,0,0,0,.42.11l1,.09a1.27,1.27,0,0,0,1.36-1.56l-.39-1.61a1.3,1.3,0,0,1,.13-.91l2.27-4.12.06-.14,1.44-3.63a1.1,1.1,0,0,1,.23-.37l2.58-2.92,1.16-2.86,6.48-3.13-1.58-1.18-.21-1A2.56,2.56,0,0,1,148,110.6l1.93-1.25a2.57,2.57,0,0,0,.69-3.63h0l-2.15-3.36a2.51,2.51,0,0,0-1.45-1.08l-1.87-.54a3.66,3.66,0,0,1-.46-.18l-3.36-1.72a2.55,2.55,0,0,0-3.37,1l-1.37,2.33-.09.17-1.27,2.58a2.55,2.55,0,0,1-3.36,1.2l-.29-.13a2,2,0,0,1-.32-.18l-2.36-1.52a2.55,2.55,0,0,1-.63-3.72l.88-1.13a1.93,1.93,0,0,1,.31-.33l2.81-2.53,1.48-1.44a2.36,2.36,0,0,1,.54-.4l.93-.51a2.57,2.57,0,0,0,1.23-2.88l-.23-.9a2.56,2.56,0,0,0-2.36-1.91l-.78,0a2.78,2.78,0,0,1-.69-.12L131,87.9a2.56,2.56,0,0,0-2.46.48l-1.65,1.4a2.57,2.57,0,0,1-1.72.61L120,90.25a2.24,2.24,0,0,1-.52-.06L114.3,89a2.39,2.39,0,0,0-1,0l-7.76,1.17a2.48,2.48,0,0,1-1.15-.09L101,88.93a2.62,2.62,0,0,0-1.36-.05l-1.31.31a2.57,2.57,0,0,0-1.79,1.54L91.5,103.35a2.32,2.32,0,0,0-.17.78l-.54,7.8v4.24h0a.58.58,0,0,0,1.09.35l2.46-4.66a2.58,2.58,0,0,1,.41-.57L95,111a2.56,2.56,0,0,1,4.17.69l3.24,7,1.88,1.46-1.16,9.08a1.24,1.24,0,0,0,.08.63l3.08,7.7a1.2,1.2,0,0,0,.38.51l7.59,6.17,3.33,4.14,6,.51,2.54.39,3,.27,2.59,1.25,2.55,1.07.5-.11a1.55,1.55,0,0,1,1.87,1.43l0,.72a1.49,1.49,0,0,1-.06.51l-.91,3.09a1.51,1.51,0,0,0,.2,1.29l1.93,2.89.16.2,3.34,3.53a1.51,1.51,0,0,0,.73.43l1.91.51a1.52,1.52,0,0,1,1.13,1.25l.4,2.57.43,3.54,0,.16,1,4.31a.88.88,0,0,0,0,.15l.47,1.36a1.49,1.49,0,0,0,.62.78l.59.39a1.58,1.58,0,0,0,1,.24l2-.18a1.54,1.54,0,0,0,1.3-2.09h0a1.45,1.45,0,0,1-.1-.41l-.06-.71a1.44,1.44,0,0,1,.16-.84l.87-1.7a1.57,1.57,0,0,1,.61-.64l1-.57a1.54,1.54,0,0,0,.5-.45L157,172l.1-.13,1.41-1.62a1.09,1.09,0,0,0,.13-.17l1.46-2.24a1.43,1.43,0,0,0,.21-.49l.5-2.19a1.53,1.53,0,0,1,.5-.82l3-2.62a1.62,1.62,0,0,0,.48-.75l1.86-6.68a2.33,2.33,0,0,1,.11-.28l0-.08a1.48,1.48,0,0,0,.13-.35l.49-2.16a1.53,1.53,0,0,0-.9-1.76l-.09,0A14.11,14.11,0,0,0,159.59,148.57ZM91.42,113.36v0Zm18,27.25.1,0Z" style="fill:#fff;opacity:0.5"></path><path d="M176.22,77.08l-2,.52a1.63,1.63,0,0,1-1.36.52l-6.18-.68a1.59,1.59,0,0,0-.72.08l-4.5,1.63a1.44,1.44,0,0,0-.42.23l-1.75,1.33a1.6,1.6,0,0,0,.17,2.66l1,.6.18.12,5.23,4a1.61,1.61,0,0,1,.63,1.27l0,4.74a1.61,1.61,0,0,0,.53,1.19l5.66,5.15a1.6,1.6,0,0,0,2.56-.6l.13-.32a1.55,1.55,0,0,1,.61-.75l5.87-3.88a.15.15,0,0,1,.07,0l5.57-2.42a.4.4,0,0,0,.25-.42.42.42,0,0,1,.77-.28s2.93,3,2.34,3.94c0,.06-3.53,1.71-3.53,1.71a.43.43,0,0,0,.11.8s4.53.13,5.68,1c1.47,1.12,3.15,6.69,3.15,6.69a.42.42,0,0,1-.11.5l-.25.22-.08.05-.19.1a.43.43,0,0,0-.16.61l2,3a.37.37,0,0,1,.05.11l1.23,3.92h0l-2.27,2.6a.43.43,0,0,0-.1.36l1.11,5.55a.38.38,0,0,1-.07.31s-4,1.62-3.19,5.73c.43,2.21,6.76,3.56,9.5,4,.1-1.4.15-2.81.15-4.24A62,62,0,0,0,176.22,77.08Z" style="fill:#fff;opacity:0.5"></path></g><g id="freepik--wind-turbines--inject-328"><path d="M176.66,254.6h-4.23l-4.17,154.9a2.9,2.9,0,0,0,2.9,3h6.76a2.91,2.91,0,0,0,2.91-3Z" style="fill:#92E3A9"></path><path d="M176.66,254.6h-4.23l-4.17,154.9a2.9,2.9,0,0,0,2.9,3h6.76a2.91,2.91,0,0,0,2.91-3Z" style="fill:#fff;opacity:0.5"></path><path d="M188.44,250.15l-5.92-.27-.58-1.75a3.16,3.16,0,0,0-2.72-2.14l-3.69-.32a3.15,3.15,0,0,0-3.12,1.81l-.89,1.89a3.79,3.79,0,1,0,.09,7.58l16.83-.79a3,3,0,0,0,0-6Z" style="fill:#92E3A9"></path><path d="M188.44,250.15l-5.92-.27-.58-1.75a3.16,3.16,0,0,0-2.72-2.14l-3.69-.32a3.15,3.15,0,0,0-3.12,1.81l-.89,1.89a3.79,3.79,0,1,0,.09,7.58l16.83-.79a3,3,0,0,0,0-6Z" style="fill:#fff;opacity:0.2"></path><path d="M188.44,256.16a3,3,0,0,0,2.47-1.54l-15.78.21a3.75,3.75,0,0,0,.4-1.68,3.95,3.95,0,1,0-3.92,3.8Z" style="opacity:0.2"></path><path d="M170.63,252.07h0a1.89,1.89,0,0,1-1.89-1.89V207.53a4.91,4.91,0,0,1,4.91-4.92h0a4.92,4.92,0,0,1,4.87,5.61l-6,42.23A1.89,1.89,0,0,1,170.63,252.07Z" style="fill:#92E3A9"></path><path d="M170.63,252.07h0a1.89,1.89,0,0,1-1.89-1.89V207.53a4.91,4.91,0,0,1,4.91-4.92h0a4.92,4.92,0,0,1,4.87,5.61l-6,42.23A1.89,1.89,0,0,1,170.63,252.07Z" style="fill:#fff;opacity:0.30000000000000004"></path><path d="M174.12,202.64a3.59,3.59,0,0,0-.47,0,4.91,4.91,0,0,0-4.91,4.92v42.65a1.86,1.86,0,0,0,.35,1.09,1.89,1.89,0,0,0,1.29-1.53l6-42.23A4.89,4.89,0,0,0,174.12,202.64Z" style="fill:#fff;opacity:0.6000000000000001"></path><path d="M171.82,254.05h0a1.89,1.89,0,0,0,.62,2.6L208.77,279a4.92,4.92,0,0,0,6.76-1.61h0a4.92,4.92,0,0,0-2.23-7.09l-39.12-17A1.88,1.88,0,0,0,171.82,254.05Z" style="fill:#92E3A9"></path><path d="M171.82,254.05h0a1.89,1.89,0,0,0,.62,2.6L208.77,279a4.92,4.92,0,0,0,6.76-1.61h0a4.92,4.92,0,0,0-2.23-7.09l-39.12-17A1.88,1.88,0,0,0,171.82,254.05Z" style="fill:#fff;opacity:0.30000000000000004"></path><path d="M213.3,270.3l-39.12-17a1,1,0,1,0-1.07,1.55l36.33,22.35a4.1,4.1,0,1,0,3.86-6.91Z" style="fill:#fff;opacity:0.6000000000000001"></path><path d="M169.06,254.05h0a1.89,1.89,0,0,1-.62,2.6L132.11,279a4.92,4.92,0,0,1-6.76-1.61h0a4.92,4.92,0,0,1,2.23-7.09l39.12-17A1.88,1.88,0,0,1,169.06,254.05Z" style="fill:#92E3A9"></path><path d="M169.06,254.05h0a1.89,1.89,0,0,1-.62,2.6L132.11,279a4.92,4.92,0,0,1-6.76-1.61h0a4.92,4.92,0,0,1,2.23-7.09l39.12-17A1.88,1.88,0,0,1,169.06,254.05Z" style="fill:#fff;opacity:0.30000000000000004"></path><path d="M166.7,253.31l-39.12,17a4,4,0,1,0,3.45,6.91l36.33-22.35a1,1,0,1,0-.66-1.55Z" style="fill:#fff;opacity:0.6000000000000001"></path><g style="opacity:0.5"><path d="M171.11,303.47l0,.92c1.28.11,2.52.16,3.52.16s2.16-.05,3.39-.15l0-.92c-1,.09-2.12.14-3.36.14S172.15,303.56,171.11,303.47Z"></path><path d="M178.21,312.32l-.15-5.57c-1,.09-2.14.15-3.45.15s-2.56-.07-3.58-.17l-.15,5.59c1.24.1,2.51.14,3.73.14S177,312.41,178.21,312.32Z"></path></g><path d="M112.36,210.11h-5.43l-5.36,199.12a3.74,3.74,0,0,0,3.73,3.84H114a3.74,3.74,0,0,0,3.74-3.84Z" style="fill:#92E3A9"></path><path d="M112.36,210.11h-5.43l-5.36,199.12a3.74,3.74,0,0,0,3.73,3.84H114a3.74,3.74,0,0,0,3.74-3.84Z" style="fill:#fff;opacity:0.5"></path><path d="M127.52,204.39,119.9,204l-.75-2.24a4,4,0,0,0-3.5-2.75l-4.74-.41a4.05,4.05,0,0,0-4,2.32l-1.14,2.43a4.87,4.87,0,1,0,.12,9.74l21.64-1a3.86,3.86,0,0,0,0-7.72Z" style="fill:#92E3A9"></path><path d="M127.52,204.39,119.9,204l-.75-2.24a4,4,0,0,0-3.5-2.75l-4.74-.41a4.05,4.05,0,0,0-4,2.32l-1.14,2.43a4.87,4.87,0,1,0,.12,9.74l21.64-1a3.86,3.86,0,0,0,0-7.72Z" style="fill:#fff;opacity:0.2"></path><path d="M127.52,212.11a3.85,3.85,0,0,0,3.17-2l-20.29.28a5.12,5.12,0,1,0-4.52,2.71Z" style="opacity:0.2"></path><path d="M104.61,206.85h0a2.42,2.42,0,0,1-2.43-2.42V149.59a6.32,6.32,0,0,1,6.32-6.32h0a6.32,6.32,0,0,1,6.26,7.22L107,204.77A2.43,2.43,0,0,1,104.61,206.85Z" style="fill:#92E3A9"></path><path d="M104.61,206.85h0a2.42,2.42,0,0,1-2.43-2.42V149.59a6.32,6.32,0,0,1,6.32-6.32h0a6.32,6.32,0,0,1,6.26,7.22L107,204.77A2.43,2.43,0,0,1,104.61,206.85Z" style="fill:#fff;opacity:0.30000000000000004"></path><path d="M109.1,143.31a5.66,5.66,0,0,0-.6,0,6.32,6.32,0,0,0-6.32,6.32v54.84a2.38,2.38,0,0,0,.45,1.39,2.42,2.42,0,0,0,1.67-2L112,149.58A6.3,6.3,0,0,0,109.1,143.31Z" style="fill:#fff;opacity:0.6000000000000001"></path><path d="M106.15,209.4h0a2.42,2.42,0,0,0,.79,3.34l46.7,28.73a6.32,6.32,0,0,0,8.7-2.07h0a6.33,6.33,0,0,0-2.87-9.11l-50.29-21.84A2.42,2.42,0,0,0,106.15,209.4Z" style="fill:#92E3A9"></path><path d="M106.15,209.4h0a2.42,2.42,0,0,0,.79,3.34l46.7,28.73a6.32,6.32,0,0,0,8.7-2.07h0a6.33,6.33,0,0,0-2.87-9.11l-50.29-21.84A2.42,2.42,0,0,0,106.15,209.4Z" style="fill:#fff;opacity:0.30000000000000004"></path><path d="M159.47,230.29l-50.29-21.84a2.39,2.39,0,0,0-2.48.34,2.38,2.38,0,0,0,1.11,1.65l46.7,28.73a5.27,5.27,0,1,0,5-8.88Z" style="fill:#fff;opacity:0.6000000000000001"></path><path d="M102.6,209.4h0a2.42,2.42,0,0,1-.79,3.34l-46.7,28.73a6.32,6.32,0,0,1-8.7-2.07h0a6.32,6.32,0,0,1,2.87-9.11l50.29-21.84A2.42,2.42,0,0,1,102.6,209.4Z" style="fill:#92E3A9"></path><path d="M102.6,209.4h0a2.42,2.42,0,0,1-.79,3.34l-46.7,28.73a6.32,6.32,0,0,1-8.7-2.07h0a6.32,6.32,0,0,1,2.87-9.11l50.29-21.84A2.42,2.42,0,0,1,102.6,209.4Z" style="fill:#fff;opacity:0.30000000000000004"></path><path d="M99.57,208.45,49.28,230.29a6.34,6.34,0,0,0-3.47,7.85,6.31,6.31,0,0,0,7.9,1l46.7-28.73a2.41,2.41,0,0,0,1.15-2A2.42,2.42,0,0,0,99.57,208.45Z" style="fill:#fff;opacity:0.6000000000000001"></path><g style="opacity:0.5"><path d="M105.24,272.93l0,1.18c1.64.14,3.24.2,4.52.2s2.78-.05,4.36-.19l0-1.17c-1.3.11-2.73.17-4.33.17S106.57,273.05,105.24,272.93Z"></path><path d="M114.36,284.31l-.19-7.17c-1.28.12-2.75.2-4.44.2s-3.29-.09-4.6-.22l-.2,7.18c1.6.13,3.23.19,4.8.19S112.82,284.43,114.36,284.31Z"></path></g></g><g id="freepik--Clipboard--inject-328"><polygon points="197.99 158.02 339.7 158.02 359.56 355.77 351.99 364.08 210.27 364.08 195.2 162.48 197.99 158.02" style="fill:#92E3A9"></polygon><polygon points="217.85 355.77 359.56 355.77 339.7 158.02 197.99 158.02 217.85 355.77" style="fill:#fff;opacity:0.7000000000000001"></polygon><g style="opacity:0.5"><path d="M219.56,361.25H350.81a.75.75,0,0,0,0-1.5H219.56a.75.75,0,0,0,0,1.5Z" style="fill:#fff"></path></g><g style="opacity:0.5"><path d="M204.25,259.76q3.83,43.35,7.64,86.72L213,358.75c.08.95,1.58,1,1.5,0q-3.83-43.37-7.64-86.73l-1.08-12.26c-.08-1-1.58-1-1.5,0Z" style="fill:#fff"></path></g><path d="M293.3,189.6h13.13a2.59,2.59,0,0,0,2.62-2.86l-.14-1.61a3.2,3.2,0,0,0-3.12-2.87H292.66a2.59,2.59,0,0,0-2.62,2.87l.14,1.61A3.19,3.19,0,0,0,293.3,189.6Z" style="fill:#92E3A9"></path><path d="M292.07,204.76h15.69a2.59,2.59,0,0,0,2.61-2.87l-.14-1.61a3.19,3.19,0,0,0-3.12-2.86H291.42a2.58,2.58,0,0,0-2.61,2.86l.14,1.61A3.2,3.2,0,0,0,292.07,204.76Z" style="fill:#92E3A9"></path><path d="M296,219.91h13.13A2.58,2.58,0,0,0,311.7,217l-.14-1.6a3.19,3.19,0,0,0-3.12-2.87H295.31a2.59,2.59,0,0,0-2.62,2.87l.15,1.6A3.18,3.18,0,0,0,296,219.91Z" style="fill:#92E3A9"></path><path d="M293.49,235.06h16.92A2.58,2.58,0,0,0,313,232.2l-.14-1.61a3.19,3.19,0,0,0-3.11-2.87H292.85a2.59,2.59,0,0,0-2.62,2.87l.14,1.61A3.19,3.19,0,0,0,293.49,235.06Z" style="fill:#92E3A9"></path><path d="M297.54,250.21h39.24a2.58,2.58,0,0,0,2.62-2.86l-.14-1.61a3.19,3.19,0,0,0-3.12-2.86H296.89a2.58,2.58,0,0,0-2.61,2.86l.14,1.61A3.19,3.19,0,0,0,297.54,250.21Z" style="fill:#92E3A9"></path><path d="M293.53,265.37h44.58a2.59,2.59,0,0,0,2.61-2.87l-.14-1.61a3.18,3.18,0,0,0-3.11-2.86H292.88a2.58,2.58,0,0,0-2.61,2.86l.14,1.61A3.2,3.2,0,0,0,293.53,265.37Z" style="fill:#92E3A9"></path><path d="M298.69,280.52h40.75a2.58,2.58,0,0,0,2.61-2.87l-.14-1.6a3.19,3.19,0,0,0-3.12-2.87H298.05a2.58,2.58,0,0,0-2.61,2.87l.14,1.6A3.19,3.19,0,0,0,298.69,280.52Z" style="fill:#92E3A9"></path><g style="opacity:0.4"><path d="M293.3,189.6h13.13a2.59,2.59,0,0,0,2.62-2.86l-.14-1.61a3.2,3.2,0,0,0-3.12-2.87H292.66a2.59,2.59,0,0,0-2.62,2.87l.14,1.61A3.19,3.19,0,0,0,293.3,189.6Z" style="fill:#fff"></path><path d="M292.07,204.76h15.69a2.59,2.59,0,0,0,2.61-2.87l-.14-1.61a3.19,3.19,0,0,0-3.12-2.86H291.42a2.58,2.58,0,0,0-2.61,2.86l.14,1.61A3.2,3.2,0,0,0,292.07,204.76Z" style="fill:#fff"></path><path d="M296,219.91h13.13A2.58,2.58,0,0,0,311.7,217l-.14-1.6a3.19,3.19,0,0,0-3.12-2.87H295.31a2.59,2.59,0,0,0-2.62,2.87l.15,1.6A3.18,3.18,0,0,0,296,219.91Z" style="fill:#fff"></path><path d="M293.49,235.06h16.92A2.58,2.58,0,0,0,313,232.2l-.14-1.61a3.19,3.19,0,0,0-3.11-2.87H292.85a2.59,2.59,0,0,0-2.62,2.87l.14,1.61A3.19,3.19,0,0,0,293.49,235.06Z" style="fill:#fff"></path><path d="M297.54,250.21h39.24a2.58,2.58,0,0,0,2.62-2.86l-.14-1.61a3.19,3.19,0,0,0-3.12-2.86H296.89a2.58,2.58,0,0,0-2.61,2.86l.14,1.61A3.19,3.19,0,0,0,297.54,250.21Z" style="fill:#fff"></path><path d="M293.53,265.37h44.58a2.59,2.59,0,0,0,2.61-2.87l-.14-1.61a3.18,3.18,0,0,0-3.11-2.86H292.88a2.58,2.58,0,0,0-2.61,2.86l.14,1.61A3.2,3.2,0,0,0,293.53,265.37Z" style="fill:#fff"></path><path d="M298.69,280.52h40.75a2.58,2.58,0,0,0,2.61-2.87l-.14-1.6a3.19,3.19,0,0,0-3.12-2.87H298.05a2.58,2.58,0,0,0-2.61,2.87l.14,1.6A3.19,3.19,0,0,0,298.69,280.52Z" style="fill:#fff"></path></g><path d="M267.26,189.6h9.33a2.59,2.59,0,0,0,2.62-2.86l-.15-1.61a3.19,3.19,0,0,0-3.11-2.87h-9.33a2.59,2.59,0,0,0-2.61,2.87l.14,1.61A3.18,3.18,0,0,0,267.26,189.6Z" style="fill:#263238"></path><path d="M268.59,204.76h9.33a2.59,2.59,0,0,0,2.61-2.87l-.14-1.61a3.19,3.19,0,0,0-3.12-2.86H268a2.58,2.58,0,0,0-2.62,2.86l.14,1.61A3.2,3.2,0,0,0,268.59,204.76Z" style="fill:#263238"></path><path d="M269.91,219.91h9.33a2.59,2.59,0,0,0,2.62-2.87l-.14-1.6a3.19,3.19,0,0,0-3.12-2.87h-9.33a2.58,2.58,0,0,0-2.61,2.87l.14,1.6A3.19,3.19,0,0,0,269.91,219.91Z" style="fill:#263238"></path><path d="M271.24,235.06h9.33a2.58,2.58,0,0,0,2.61-2.86l-.14-1.61a3.19,3.19,0,0,0-3.11-2.87H270.6a2.59,2.59,0,0,0-2.62,2.87l.14,1.61A3.19,3.19,0,0,0,271.24,235.06Z" style="fill:#263238"></path><path d="M272.57,250.21h9.32a2.58,2.58,0,0,0,2.62-2.86l-.14-1.61a3.19,3.19,0,0,0-3.12-2.86h-9.33a2.58,2.58,0,0,0-2.61,2.86l.14,1.61A3.19,3.19,0,0,0,272.57,250.21Z" style="fill:#263238"></path><path d="M273.89,265.37h9.33a2.59,2.59,0,0,0,2.61-2.87l-.14-1.61a3.18,3.18,0,0,0-3.11-2.86h-9.33a2.59,2.59,0,0,0-2.62,2.86l.14,1.61A3.2,3.2,0,0,0,273.89,265.37Z" style="fill:#263238"></path><path d="M275.22,280.52h9.32a2.58,2.58,0,0,0,2.62-2.87l-.14-1.6a3.19,3.19,0,0,0-3.12-2.87h-9.32a2.58,2.58,0,0,0-2.62,2.87l.14,1.6A3.19,3.19,0,0,0,275.22,280.52Z" style="fill:#263238"></path><g style="opacity:0.4"><path d="M267.26,189.6h9.33a2.59,2.59,0,0,0,2.62-2.86l-.15-1.61a3.19,3.19,0,0,0-3.11-2.87h-9.33a2.59,2.59,0,0,0-2.61,2.87l.14,1.61A3.18,3.18,0,0,0,267.26,189.6Z" style="fill:#fff"></path><path d="M268.59,204.76h9.33a2.59,2.59,0,0,0,2.61-2.87l-.14-1.61a3.19,3.19,0,0,0-3.12-2.86H268a2.58,2.58,0,0,0-2.62,2.86l.14,1.61A3.2,3.2,0,0,0,268.59,204.76Z" style="fill:#fff"></path><path d="M269.91,219.91h9.33a2.59,2.59,0,0,0,2.62-2.87l-.14-1.6a3.19,3.19,0,0,0-3.12-2.87h-9.33a2.58,2.58,0,0,0-2.61,2.87l.14,1.6A3.19,3.19,0,0,0,269.91,219.91Z" style="fill:#fff"></path><path d="M271.24,235.06h9.33a2.58,2.58,0,0,0,2.61-2.86l-.14-1.61a3.19,3.19,0,0,0-3.11-2.87H270.6a2.59,2.59,0,0,0-2.62,2.87l.14,1.61A3.19,3.19,0,0,0,271.24,235.06Z" style="fill:#fff"></path><path d="M272.57,250.21h9.32a2.58,2.58,0,0,0,2.62-2.86l-.14-1.61a3.19,3.19,0,0,0-3.12-2.86h-9.33a2.58,2.58,0,0,0-2.61,2.86l.14,1.61A3.19,3.19,0,0,0,272.57,250.21Z" style="fill:#fff"></path><path d="M273.89,265.37h9.33a2.59,2.59,0,0,0,2.61-2.87l-.14-1.61a3.18,3.18,0,0,0-3.11-2.86h-9.33a2.59,2.59,0,0,0-2.62,2.86l.14,1.61A3.2,3.2,0,0,0,273.89,265.37Z" style="fill:#fff"></path><path d="M275.22,280.52h9.32a2.58,2.58,0,0,0,2.62-2.87l-.14-1.6a3.19,3.19,0,0,0-3.12-2.87h-9.32a2.58,2.58,0,0,0-2.62,2.87l.14,1.6A3.19,3.19,0,0,0,275.22,280.52Z" style="fill:#fff"></path></g><path d="M227.42,299.86h44a2.58,2.58,0,0,0,2.61-2.87l-.14-1.61a3.18,3.18,0,0,0-3.11-2.86h-44a2.59,2.59,0,0,0-2.62,2.86l.15,1.61A3.18,3.18,0,0,0,227.42,299.86Z" style="fill:#263238"></path><path d="M226.19,315h46.59a2.58,2.58,0,0,0,2.62-2.86l-.14-1.61a3.19,3.19,0,0,0-3.12-2.87h-46.6a2.58,2.58,0,0,0-2.61,2.87l.14,1.61A3.19,3.19,0,0,0,226.19,315Z" style="fill:#263238"></path><path d="M230.07,330.16h44a2.59,2.59,0,0,0,2.62-2.86l-.15-1.61a3.19,3.19,0,0,0-3.11-2.87h-44a2.59,2.59,0,0,0-2.61,2.87l.14,1.61A3.18,3.18,0,0,0,230.07,330.16Z" style="fill:#263238"></path><path d="M227.61,345.32h47.83a2.59,2.59,0,0,0,2.61-2.87l-.14-1.61a3.19,3.19,0,0,0-3.12-2.86H227a2.59,2.59,0,0,0-2.62,2.86l.14,1.61A3.2,3.2,0,0,0,227.61,345.32Z" style="fill:#263238"></path><g style="opacity:0.4"><path d="M227.42,299.86h44a2.58,2.58,0,0,0,2.61-2.87l-.14-1.61a3.18,3.18,0,0,0-3.11-2.86h-44a2.59,2.59,0,0,0-2.62,2.86l.15,1.61A3.18,3.18,0,0,0,227.42,299.86Z" style="fill:#fff"></path><path d="M226.19,315h46.59a2.58,2.58,0,0,0,2.62-2.86l-.14-1.61a3.19,3.19,0,0,0-3.12-2.87h-46.6a2.58,2.58,0,0,0-2.61,2.87l.14,1.61A3.19,3.19,0,0,0,226.19,315Z" style="fill:#fff"></path><path d="M230.07,330.16h44a2.59,2.59,0,0,0,2.62-2.86l-.15-1.61a3.19,3.19,0,0,0-3.11-2.87h-44a2.59,2.59,0,0,0-2.61,2.87l.14,1.61A3.18,3.18,0,0,0,230.07,330.16Z" style="fill:#fff"></path><path d="M227.61,345.32h47.83a2.59,2.59,0,0,0,2.61-2.87l-.14-1.61a3.19,3.19,0,0,0-3.12-2.86H227a2.59,2.59,0,0,0-2.62,2.86l.14,1.61A3.2,3.2,0,0,0,227.61,345.32Z" style="fill:#fff"></path></g><path d="M260.27,161.72l1.42-.3-7.11-24.3a7.15,7.15,0,0,1,.87-6.27,6.49,6.49,0,0,1,5.42-2.59,10.39,10.39,0,0,1,9.89,9l2.25,24.3h1.47l-2.25-24.3a12.09,12.09,0,0,0-11.49-10.47,7.89,7.89,0,0,0-6.51,3.13,8.53,8.53,0,0,0-1.07,7.49Z"></path><path d="M249.81,165.7h40.64l-1.62-18.52a4.34,4.34,0,0,0-4.24-3.91H251.76a3.53,3.53,0,0,0-3.57,3.91Z" style="fill:#92E3A9"></path><path d="M249.81,165.7h40.64l-1.62-18.52a4.34,4.34,0,0,0-4.24-3.91H251.76a3.53,3.53,0,0,0-3.57,3.91Z" style="opacity:0.2"></path><path d="M264.39,161.64l1.44-.14-4.55-24.31a7.58,7.58,0,0,1,1.51-6.25,7.42,7.42,0,0,1,5.79-2.68,8.89,8.89,0,0,1,6.25,2.68,8.77,8.77,0,0,1,2.61,6.25l-.3,24.31,1.47.14.31-24.3a10.66,10.66,0,0,0-10.47-10.55,8.76,8.76,0,0,0-6.84,3.16,9,9,0,0,0-1.78,7.39Z"></path><g style="opacity:0.2"><path d="M264.39,161.64l1.44-.14-4.55-24.31a7.58,7.58,0,0,1,1.51-6.25,7.42,7.42,0,0,1,5.79-2.68,8.89,8.89,0,0,1,6.25,2.68,8.77,8.77,0,0,1,2.61,6.25l-.3,24.31,1.47.14.31-24.3a10.66,10.66,0,0,0-10.47-10.55,8.76,8.76,0,0,0-6.84,3.16,9,9,0,0,0-1.78,7.39Z" style="fill:#fff"></path></g><path d="M248.52,168.5h43.72a1.25,1.25,0,0,0,1.26-1.38l-.21-2.38a1.54,1.54,0,0,0-1.5-1.38H248.07a1.25,1.25,0,0,0-1.26,1.38l.21,2.38A1.54,1.54,0,0,0,248.52,168.5Z" style="fill:#92E3A9"></path><path d="M338.92,299.84H280.65l1,11.48.09,1,.91,10.48.09,1,.92,10.48.09,1,1,11.48h69.71l-1-11.48-.09-1-.91-10.48-.09-1-.92-10.48-.09-1-1-11.48Zm1,23H329.48l-.91-10.48H339Zm-11.45,0H318l-.92-10.48h10.41Zm-11.45,0H306.59l-.92-10.48h10.42Zm-11.44,0H295.14l-.91-10.48h10.41Zm-10.33,1h10.41l.92,10.48H296.15Zm11.45,0h10.41l.92,10.48H307.59Zm11.44,0h10.42l.91,10.48H319Zm11.45,0H340l.92,10.48H330.49Zm8.41-23,.91,10.48H328.48l-.92-10.48Zm-11.45,0,.92,10.48H317l-.91-10.48Zm-11.45,0,.92,10.48H305.59l-.92-10.48Zm-11.44,0,.91,10.48H294.14l-.92-10.48Zm-21.9,0h10.45l.92,10.48H282.66Zm1,11.48h10.44l.92,10.48H283.66Zm1,11.48H294.2l.91,10.48H284.67Zm1.92,22-.91-10.48H295.2l.92,10.48Zm11.48,0-.91-10.48h10.41l.92,10.48Zm11.45,0-.92-10.48H318.1l.91,10.48Zm11.45,0-.92-10.48h10.41l.92,10.48Zm11.44,0-.91-10.48H341l.92,10.48Zm21.9,0H342.94L342,335.28h10.45Zm-1-11.48H341.94L341,323.8h10.45Zm-1-11.48H340.93L340,312.32h10.45Zm-11.45-11.48L339,300.84h10.45l.91,10.48Z" style="fill:#fff;opacity:0.8"></path><polygon points="299.61 345.93 292.21 345.93 291.21 334.61 298.61 334.61 299.61 345.93" style="fill:#92E3A9"></polygon><polygon points="314.41 345.93 307.01 345.93 305 323.3 312.4 323.3 314.41 345.93" style="fill:#263238"></polygon><polygon points="329.21 345.93 321.81 345.93 320.49 331.12 327.89 331.12 329.21 345.93" style="fill:#92E3A9"></polygon><polygon points="344.01 345.93 336.61 345.93 333.83 314.66 341.23 314.66 344.01 345.93" style="fill:#263238"></polygon><path d="M290,321.06h0a1.83,1.83,0,0,1,.56-2.6l16.7-9.41L322.42,314l15.2-10.12a2,2,0,0,1,2.71.61h0a1.85,1.85,0,0,1-.37,2.65L323.3,318.21l-15.32-5-15.31,8.63A2,2,0,0,1,290,321.06Z" style="fill:#92E3A9"></path><path d="M332.35,307.67s8.57-8.07-1.87-11.48c0,0-4.73,9.15.48,11.48,0,0,2.51-4.18,1.06-8.56C332,299.11,334.87,302.38,332.35,307.67Z" style="fill:#92E3A9"></path><path d="M338.79,307.87s7.25-9.28,11.56.86c0,0-8.65,5.54-11.43.53,0,0,3.92-2.88,8.39-1.81C347.31,307.45,343.82,304.88,338.79,307.87Z" style="fill:#92E3A9"></path><path d="M241.21,221.9a16.65,16.65,0,0,0,16.85-18.46A20.56,20.56,0,0,0,238,185a19.59,19.59,0,0,0-2.44.18,20.39,20.39,0,0,0-2.48-.18,16.65,16.65,0,0,0-16.84,18.46h11.42a10.75,10.75,0,0,1,8.47-11.7,13.37,13.37,0,0,1,10.53,11.7,10.79,10.79,0,0,1-10.92,12l.57,6.5Z" style="fill:#92E3A9"></path><path d="M239.27,224l-.57-6.51a13.31,13.31,0,0,1-13-12H214.28A20.55,20.55,0,0,0,234.35,224Z" style="fill:#92E3A9"></path><path d="M241.21,221.9a16.65,16.65,0,0,0,16.85-18.46A20.56,20.56,0,0,0,238,185a19.59,19.59,0,0,0-2.44.18,20.39,20.39,0,0,0-2.48-.18,16.65,16.65,0,0,0-16.84,18.46h11.42a10.75,10.75,0,0,1,8.47-11.7,13.37,13.37,0,0,1,10.53,11.7,10.79,10.79,0,0,1-10.92,12l.57,6.5Z" style="fill:#263238"></path><path d="M239.27,224l-.57-6.51a13.31,13.31,0,0,1-13-12H214.28A20.55,20.55,0,0,0,234.35,224Z" style="fill:#263238"></path><path d="M227.64,203.44a10.79,10.79,0,0,1,10.91-12,13.32,13.32,0,0,1,13,12,10.79,10.79,0,0,1-10.92,12l.57,6.5a16.65,16.65,0,0,0,16.85-18.46A20.56,20.56,0,0,0,238,185a16.65,16.65,0,0,0-16.84,18.46Z" style="fill:#92E3A9"></path><path d="M219.2,205.57A20.55,20.55,0,0,0,239.27,224l-.57-6.51a13.31,13.31,0,0,1-13-12Z" style="fill:#92E3A9"></path><path d="M219.2,205.57A20.55,20.55,0,0,0,239.27,224l-.57-6.51a13.31,13.31,0,0,1-13-12Z" style="fill:#fff;opacity:0.5"></path><path d="M238,239.26c-.19-2.24-.26-3-.46-5.29h-4.92a16.83,16.83,0,0,0-12.58,5.41l5,4.6H230a10.68,10.68,0,0,1,5.81-3.27c.13,1.46.22,2.43.43,4.89a13.3,13.3,0,0,1,13,12h11.43a20.56,20.56,0,0,0-20.08-18.46Z" style="fill:#92E3A9"></path><path d="M246.13,278.14A16.65,16.65,0,0,0,263,259.68H251.56a10.75,10.75,0,0,1-8.15,11.61l-.16-1.78a13.31,13.31,0,0,1-13-12A11,11,0,0,1,233,249.1l-5-4.6h-4.92a16.93,16.93,0,0,0-4.26,13.05A20.54,20.54,0,0,0,238.9,276l2.11-.23.2,2.36Z" style="fill:#92E3A9"></path><path d="M238,239.26c-.19-2.24-.26-3-.46-5.29h-4.92a16.83,16.83,0,0,0-12.58,5.41l5,4.6H230a10.68,10.68,0,0,1,5.81-3.27c.13,1.46.22,2.43.43,4.89a13.3,13.3,0,0,1,13,12h11.43a20.56,20.56,0,0,0-20.08-18.46Z" style="fill:#263238"></path><path d="M246.13,278.14A16.65,16.65,0,0,0,263,259.68H251.56a10.75,10.75,0,0,1-8.15,11.61l-.16-1.78a13.31,13.31,0,0,1-13-12A11,11,0,0,1,233,249.1l-5-4.6h-4.92a16.93,16.93,0,0,0-4.26,13.05A20.54,20.54,0,0,0,238.9,276l2.11-.23.2,2.36Z" style="fill:#263238"></path><path d="M256.48,259.68a10.79,10.79,0,0,1-10.92,12l.57,6.5A16.65,16.65,0,0,0,263,259.68Z" style="fill:#92E3A9"></path><path d="M256.48,259.68a10.79,10.79,0,0,1-10.92,12l.57,6.5A16.65,16.65,0,0,0,263,259.68Z" style="opacity:0.30000000000000004"></path><path d="M240.59,239.09a20.56,20.56,0,0,1,20.08,18.46h-6.51a13.3,13.3,0,0,0-13-12C240.88,242.36,240.82,241.7,240.59,239.09Z" style="fill:#92E3A9"></path><path d="M233,249.1a11,11,0,0,0-2.76,8.45,13.31,13.31,0,0,0,13,12l.57,6.5a20.54,20.54,0,0,1-20.07-18.46A16.93,16.93,0,0,1,228,244.5Z" style="fill:#92E3A9"></path><path d="M230,244l-5-4.6A16.83,16.83,0,0,1,237.58,234c.23,2.61.29,3.27.57,6.5A10.9,10.9,0,0,0,230,244Z" style="fill:#92E3A9"></path><path d="M230,244l-5-4.6A16.83,16.83,0,0,1,237.58,234c.23,2.61.29,3.27.57,6.5A10.9,10.9,0,0,0,230,244Z" style="fill:#fff;opacity:0.5"></path></g><g id="freepik--Character--inject-328"><polygon points="372.28 397.3 367.89 408.25 361.55 406.65 364.72 394.45 372.28 397.3" style="fill:#ce7a63"></polygon><polygon points="414.33 395.3 412.48 406.96 405.95 406.8 406.33 394.21 414.33 395.3" style="fill:#ce7a63"></polygon><path d="M354.09,412.85c5.81.08,6.58,0,9.84-.06,2.8-.06,3.46.3,5.71.29,1.87,0,1.83-1.81,1.28-3.89-.28-1-.69-3.24-1.06-4.92l-7.55-2.76c-1.23,2.27-4.93,7.51-8.21,7.9S351.78,412.82,354.09,412.85Z" style="fill:#92E3A9"></path><path d="M380.91,250.56s-4.15,61-6.73,84.22a416,416,0,0,1-12.73,67.14c1.16,1.06,6.1,1.58,8.89,1.33,0,0,20.17-34.51,18.27-64.75,19.49-53.26,13.61-85.78,13.61-85.78Z" style="fill:#263238"></path><path d="M392.61,320.69c2.42-17.25-.82-46.94-.82-46.94l1.63-9.7L397,267l6.18,6C402.35,284,399.64,299.74,392.61,320.69Z" style="opacity:0.5"></path><path d="M398.19,412.33c5.81-.12,6.57-.23,9.83-.41,2.79-.16,3.47.18,5.71.08,1.88-.08,1.77-1.87,1.15-3.92-.31-1-.8-3.22-1.24-4.89l-8.52-.44c-1.15,2.31-3.78,5.63-7,6.14S395.88,412.38,398.19,412.33Z" style="fill:#92E3A9"></path><path d="M388.7,253.51s9.08,56.8,13.12,79.84c4.24,24.2,3.67,54.26,3.07,70.16,1.38.76,6.29.11,8.95-.79,0,0,9.9-43.26,4.55-67.32,6.48-56.34-6.75-78.75-6.75-78.75Z" style="fill:#263238"></path><path d="M385.62,211.22c-1.67,5.53-7.66,16.5-17.78,19,0,0,1.31,5.24-3.12,4.75,0,0,10.28,3.45,17.29-2.93,10.67-9.7,13-22.93,8.29-24.87C387.22,205.94,386.1,209.6,385.62,211.22Z" style="fill:#92E3A9"></path><path d="M385.62,211.22c-1.67,5.53-7.78,16.5-17.78,19,0,0,1.31,5.24-3.12,4.75,0,0,10.28,3.45,17.29-2.93,10.67-9.7,13-22.93,8.29-24.87C387.22,205.94,386.1,209.6,385.62,211.22Z" style="opacity:0.5"></path><path d="M380.53,218c-.73,3,.29,8.53.36,16-.06,6.28.67,10.53-.87,22.16L413,257.38c-.2-8.95.62-18.9,7.35-38.06a8,8,0,0,0-5.89-10.4c-1.26-.3-2.6-.58-4-.83a105.38,105.38,0,0,0-14.51-2c-1.58-.07-3.23.06-4.8-.09C388.7,205.81,382,212.06,380.53,218Z" style="fill:#263238"></path><path d="M396.84,174.67s-5.73.13-2.45,10l3.7-6.46Z" style="fill:#263238"></path><path d="M409.62,193.21c-1.47,4.36-3.41,12.45-.57,15.88,0,0-4.33-1.23-13.86,3.16-2.49-4.15-.44-5.09-.44-5.09,5.28-.5,5.62-4.23,5.17-7.83Z" style="fill:#ce7a63"></path><path d="M405.67,195.71l-5.75,3.62a14.45,14.45,0,0,1,.13,2.53c2,0,4.95-1.75,5.41-3.72A6.81,6.81,0,0,0,405.67,195.71Z" style="opacity:0.2"></path><path d="M414.39,182.66c-1,7.45-1.27,10.62-5.31,14.38-6.06,5.66-14.92,3.29-16.14-4.2-1.1-6.74.74-17.8,8.22-20.63A9.64,9.64,0,0,1,414.39,182.66Z" style="fill:#ce7a63"></path><path d="M402.75,185.8c-.05.6-.4,1.07-.78,1.06s-.64-.49-.59-1.09.41-1.07.79-1.06S402.81,185.21,402.75,185.8Z" style="fill:#263238"></path><path d="M395.37,185.41c-.05.6-.4,1.07-.78,1.06s-.64-.5-.59-1.09.41-1.07.78-1.06S395.43,184.82,395.37,185.41Z" style="fill:#263238"></path><path d="M395,184.36l-1.36-.45S394.21,185,395,184.36Z" style="fill:#263238"></path><path d="M397.51,186.77a17.71,17.71,0,0,1-2.42,3.75,2.38,2.38,0,0,0,2,.44Z" style="fill:#ba4d3c"></path><path d="M404.18,182.1a.3.3,0,0,1-.24-.09,2.53,2.53,0,0,0-2.31-.75.32.32,0,0,1-.39-.26.37.37,0,0,1,.27-.42,3.18,3.18,0,0,1,2.93.91.36.36,0,0,1,0,.5A.38.38,0,0,1,404.18,182.1Z" style="fill:#263238"></path><path d="M392.7,181.43a.3.3,0,0,1-.24-.05.33.33,0,0,1-.07-.48,3.62,3.62,0,0,1,2.77-1.66.32.32,0,0,1,.32.34.38.38,0,0,1-.36.36,2.91,2.91,0,0,0-2.19,1.34A.36.36,0,0,1,392.7,181.43Z" style="fill:#263238"></path><path d="M402.33,184.75,401,184.3S401.59,185.43,402.33,184.75Z" style="fill:#263238"></path><path d="M396.24,193.11a33.87,33.87,0,0,1,6.52-.36,4.09,4.09,0,0,1-4.23,2.63A2.12,2.12,0,0,1,396.24,193.11Z" style="fill:#263238"></path><path d="M399.74,194.23a4.63,4.63,0,0,0-2.72.69,2.46,2.46,0,0,0,1.51.46,4.53,4.53,0,0,0,2.71-.7A2.41,2.41,0,0,0,399.74,194.23Z" style="fill:#ff5652"></path><path d="M396.46,193.07a.94.94,0,0,0,.7.74,26.21,26.21,0,0,0,4.27-.34,1.43,1.43,0,0,0,1.12-.72A38.87,38.87,0,0,0,396.46,193.07Z" style="fill:#fff"></path><path d="M412.53,188s-5-1.7-7.23-11.4c0,0-1.33,2.92,1.29,8.29,0,0-6.07-2.07-5.64-8.2,0,0-4.78,3-1.35,7.41,0,0-7.82-4.47-2.78-10.33,0,0-.24-11.37,10.82-4.48,0,0,27.06,8.56,4.12,24.53Z" style="fill:#263238"></path><path d="M416.39,188.86a6,6,0,0,1-3.76,2.67c-2,.41-2.76-1.58-2-3.54.68-1.76,2.55-4.09,4.46-3.62S417.48,187.14,416.39,188.86Z" style="fill:#ce7a63"></path><path d="M400.82,170.65s-10,.95-8,8c0,0,1.12-4,7.15-3.65Z" style="fill:#263238"></path><path d="M400.82,170.65a4.12,4.12,0,0,1-4.93-3.5s-3.53,6.93,3.13,5.41Z" style="fill:#263238"></path><path d="M410,209.28s-2.08-1.4-2.12-5.35a1,1,0,0,0-1.2-1,13.91,13.91,0,0,1-6.46-.33,1,1,0,0,0-1.28.77c-.26,1.33-1.08,3.33-3.61,3.34l-4,1.27,1.84,5.46,5.1.58,10.1-1.21,2.41-2.86Z" style="fill:#263238"></path><path d="M409.21,206.85a2.17,2.17,0,0,0-1.9.44c-2.33,1.89-8.44,8.24-10.57,24-2.65,19.64,6.42,41.73,6.42,41.73L420,268.89s-7-10.21-6.06-20.62,9.52-30.79,7.41-35.08C419.61,209.68,412,207.53,409.21,206.85Z" style="fill:#92E3A9"></path><path d="M409.21,206.85a2.17,2.17,0,0,0-1.9.44c-2.33,1.89-8.44,8.24-10.57,24-2.65,19.64,6.42,41.73,6.42,41.73L420,268.89s-7-10.21-6.06-20.62,9.52-30.79,7.41-35.08C419.61,209.68,412,207.53,409.21,206.85Z" style="opacity:0.30000000000000004"></path><path d="M409.45,208.29s-.8,7.26-2.18,9.17c-.53.73-3.25,1-3.06,1.89.23,1.05,3.87-.47,4.29.52,1.73,4-11.31,14.06-11.31,14.06s10.55-9.43,9-12.88c-.59-1.3-5.33.45-5.61-1-.31-1.6,4.5-2.19,5.54-3.43C407.56,214.94,409.45,208.29,409.45,208.29Z" style="opacity:0.2"></path><path d="M396.46,205.79c.34.07.36.13.07.32-2.24,1.44-7.32,7.34-9.2,31.22-2.44,31-6.74,34-6.74,34l-4.29-1.41s1.69-5.59,2.65-18.51c.37-5-.17-14.1-.13-22.63C378.89,215.74,385.53,203.58,396.46,205.79Z" style="fill:#92E3A9"></path><path d="M396.46,205.79c.34.07.36.13.07.32-2.24,1.44-7.32,7.34-9.2,31.22-2.44,31-6.74,34-6.74,34l-4.29-1.41s1.69-5.59,2.65-18.51c.37-5-.17-14.1-.13-22.63C378.89,215.74,385.4,203.58,396.46,205.79Z" style="opacity:0.30000000000000004"></path><path d="M393,207.49s-6.79,5.6-6.74,8.27c0,.9,2.7,1.88,2.39,2.74-.42,1.14-4.13-.24-4.82.77-1.71,2.5,2.6,12.84,2.6,12.84s-6.29-11-4.5-13.93c.52-.85,3.62.4,3.95-.54.21-.63-1.86-1.26-1.83-1.92C384.1,212.68,393,207.49,393,207.49Z" style="opacity:0.2"></path><path d="M399.69,250l-36.82-29a30.06,30.06,0,1,0-2.42,2.88l34.92,31.3a3.37,3.37,0,0,0,4.82-.34h0A3.35,3.35,0,0,0,399.69,250Zm-78.26-26.39a26.82,26.82,0,1,1,37.79-3.26A26.81,26.81,0,0,1,321.43,223.63Z" style="fill:#263238"></path><path d="M399.69,250l-36.82-29a30.06,30.06,0,1,0-2.42,2.88l34.92,31.3a3.37,3.37,0,0,0,4.82-.34h0A3.35,3.35,0,0,0,399.69,250Zm-78.26-26.39a26.82,26.82,0,1,1,37.79-3.26A26.81,26.81,0,0,1,321.43,223.63Z" style="fill:#fff;opacity:0.5"></path><path d="M395.62,244.66a46.09,46.09,0,0,0,4.66,2.55,40.49,40.49,0,0,0,5,2,23.26,23.26,0,0,0,5.77,1.11,12.24,12.24,0,0,0,3.59-.33,8.05,8.05,0,0,0,4.12-2.5,3.37,3.37,0,0,0,.38-.55l.12-.24a30.32,30.32,0,0,0,2.38-5.72,33.61,33.61,0,0,0,1.22-6,36.85,36.85,0,0,0,.2-6c0-1-.14-2-.27-3-.06-.5-.13-1-.22-1.51l-.15-.77-.2-.88a4.49,4.49,0,0,0-8.81,1.75l.07.38.07.44.09.56.16,1.15c.09.78.16,1.57.2,2.36a41.46,41.46,0,0,1,0,4.73,28.76,28.76,0,0,1-1.81,8.4,5.65,5.65,0,0,1-1.18.24,19.26,19.26,0,0,1-4.21-.18c-1.51-.19-3.07-.5-4.64-.84s-3.18-.76-4.7-1.15l-.1,0a2.24,2.24,0,0,0-1.76,4.07Z" style="fill:#ce7a63"></path><path d="M389.82,237.68l2-.5a2.66,2.66,0,0,1,2.27.53l3.06,2.45c1.23,1,2.6,3.73,1.93,4.86-1.78,3-7.87-.26-7.87-.26l-1.34-.23a2.31,2.31,0,0,1-1.94-2.38l.22-2.6A2.12,2.12,0,0,1,389.82,237.68Z" style="fill:#ce7a63"></path><path d="M416.15,210.65a3.31,3.31,0,0,1,3.57.42c2.47,2,6.37,7.5,4.52,22.68-2.63,21.56-13.49,18.54-25.78,12.71l.75-5.66s8.41,2.38,12.8,1.47a29.12,29.12,0,0,0,1.84-11.34C413.53,225.4,410.56,213.65,416.15,210.65Z" style="fill:#92E3A9"></path><path d="M416.15,210.65a3.31,3.31,0,0,1,3.57.42c2.47,2,6.37,7.5,4.52,22.68-2.63,21.56-13.49,18.54-25.78,12.71l.75-5.66s8.41,2.38,12.8,1.47a29.12,29.12,0,0,0,1.84-11.34C413.53,225.4,410.56,213.65,416.15,210.65Z" style="opacity:0.5"></path><path d="M358.67,229.36l.58,2.14a2.85,2.85,0,0,0,1.57,1.84l3.61,1.62a1.94,1.94,0,0,0,.63.16,3,3,0,0,0,2.86-4.61,21.73,21.73,0,0,0-2.5-3.33l-.86-1.12a2.21,2.21,0,0,0-3-.63l-2.11,1.49A2.25,2.25,0,0,0,358.67,229.36Z" style="fill:#ce7a63"></path><polygon points="338.85 190 334.03 198.28 326.62 193.83 332.8 183.08 345.15 183.08 338.85 190" style="fill:#92E3A9"></polygon><path d="M349.59,207.91l-4.81-8.4,7.53-4.2,6.3,10.75c-2,3.45-4.33,7.41-6.18,10.74Z" style="fill:#92E3A9"></path><path d="M328.72,208.28h9.51v8.64H325.76c-2-3.33-4.33-7.41-6.18-10.74Z" style="fill:#92E3A9"></path><path d="M345.15,183.08l3.7,6.3,1.86-1a.58.58,0,0,1,.79.79l-3.88,6.75a.82.82,0,0,1-.75.4l-7.13-.36a.58.58,0,0,1-.25-1.09l1.58-.87c-.49-1-1.36-2.47-2.22-3.95Z" style="fill:#92E3A9"></path><path d="M352.43,216.8h-7.28l-.07,2.27a.58.58,0,0,1-1.08.27l-3.92-6.8a.81.81,0,0,1,0-.85l3.86-5.92a.57.57,0,0,1,1.06.32c0,.58,0,1.15,0,1.69,1.11.13,2.84.13,4.57.13Z" style="fill:#92E3A9"></path><path d="M319.58,206.18l3.58-6.3-1.85-1.15a.58.58,0,0,1,.31-1.07h7.84a.82.82,0,0,1,.72.44l3.29,6.38a.59.59,0,0,1-.84.76l-1.56-1c-.62,1-1.49,2.47-2.35,4.08Z" style="fill:#92E3A9"></path><path d="M345.15,183.08l3.7,6.3,1.86-1a.58.58,0,0,1,.79.79l-3.88,6.75a.82.82,0,0,1-.75.4l-7.13-.36a.58.58,0,0,1-.25-1.09l1.58-.87c-.49-1-1.36-2.47-2.22-3.95Z" style="opacity:0.30000000000000004"></path><path d="M352.43,216.8h-7.28l-.07,2.27a.58.58,0,0,1-1.08.27l-3.92-6.8a.81.81,0,0,1,0-.85l3.86-5.92a.57.57,0,0,1,1.06.32c0,.58,0,1.15,0,1.69,1.11.13,2.84.13,4.57.13Z" style="opacity:0.30000000000000004"></path><path d="M319.58,206.18l3.58-6.3-1.85-1.15a.58.58,0,0,1,.31-1.07h7.84a.82.82,0,0,1,.72.44l3.29,6.38a.59.59,0,0,1-.84.76l-1.56-1c-.62,1-1.49,2.47-2.35,4.08Z" style="opacity:0.30000000000000004"></path></g></svg>
