<svg xmlns="http://www.w3.org/2000/svg" viewBox="0 0 500 500"><g id="freepik--background-complete--inject-20"><rect x="416.78" y="398.49" width="33.12" height="0.25" style="fill:#ebebeb"></rect><rect x="322.53" y="401.21" width="8.69" height="0.25" style="fill:#ebebeb"></rect><rect x="396.59" y="389.21" width="19.19" height="0.25" style="fill:#ebebeb"></rect><rect x="52.46" y="390.89" width="43.19" height="0.25" style="fill:#ebebeb"></rect><rect x="104.56" y="390.89" width="6.33" height="0.25" style="fill:#ebebeb"></rect><rect x="131.47" y="395.11" width="93.68" height="0.25" style="fill:#ebebeb"></rect><path d="M238.4,337.8H45.3a5.71,5.71,0,0,1-5.71-5.71V60.66A5.71,5.71,0,0,1,45.3,55H238.4a5.71,5.71,0,0,1,5.71,5.71V332.09A5.71,5.71,0,0,1,238.4,337.8ZM45.3,55.2a5.47,5.47,0,0,0-5.46,5.46V332.09a5.47,5.47,0,0,0,5.46,5.46H238.4a5.47,5.47,0,0,0,5.46-5.46V60.66a5.47,5.47,0,0,0-5.46-5.46Z" style="fill:#ebebeb"></path><path d="M454.7,337.8H261.6a5.71,5.71,0,0,1-5.71-5.71V60.66A5.71,5.71,0,0,1,261.6,55H454.7a5.71,5.71,0,0,1,5.71,5.71V332.09A5.71,5.71,0,0,1,454.7,337.8ZM261.6,55.2a5.47,5.47,0,0,0-5.46,5.46V332.09a5.47,5.47,0,0,0,5.46,5.46H454.7a5.47,5.47,0,0,0,5.46-5.46V60.66a5.47,5.47,0,0,0-5.46-5.46Z" style="fill:#ebebeb"></path><rect y="382.4" width="500" height="0.25" style="fill:#ebebeb"></rect><rect x="338.37" y="310.32" width="63.24" height="72.69" style="fill:#f5f5f5"></rect><rect x="401.61" y="310.32" width="38.84" height="72.69" style="fill:#ebebeb"></rect><polygon points="417.15 310.32 417.15 337.83 418.15 336.78 419.93 338.06 421.48 336.78 423.48 338.06 425.59 336.78 426.92 338.06 428.46 337.12 428.46 310.32 417.15 310.32" style="fill:#e0e0e0"></polygon><polygon points="417.15 310.32 417.15 337.83 418.15 336.78 419.93 338.06 421.48 336.78 423.48 338.06 425.59 336.78 426.92 338.06 428.46 337.12 428.46 310.32 417.15 310.32" style="fill:#e0e0e0;opacity:0.7000000000000001"></polygon><rect x="352.62" y="190.39" width="48.63" height="55.9" style="fill:#f5f5f5"></rect><rect x="401.25" y="190.39" width="29.87" height="55.9" style="fill:#e6e6e6"></rect><polygon points="391.96 206.1 343.33 206.1 352.63 190.39 401.25 190.39 391.96 206.1" style="fill:#e6e6e6"></polygon><polygon points="410.06 206.1 439.93 206.1 431.13 190.39 401.25 190.39 410.06 206.1" style="fill:#f5f5f5"></polygon><rect x="374.18" y="246.17" width="55.9" height="64.26" transform="translate(804.25 556.6) rotate(180)" style="fill:#f5f5f5"></rect><rect x="339.84" y="246.17" width="34.34" height="64.26" transform="translate(714.02 556.6) rotate(180)" style="fill:#e6e6e6"></rect><rect x="402.57" y="253.4" width="20.77" height="12.23" style="fill:#e0e0e0"></rect><path d="M397.06,110l-46-4.83a5.55,5.55,0,0,0-6.1,4.93l-.59,5.64a5.54,5.54,0,0,0,4.93,6.09L365,123.44l4.82,6.51a2.51,2.51,0,0,0,3.69.39l6.06-5.36,15.72,1.65a5.54,5.54,0,0,0,6.09-4.93l.59-5.65A5.54,5.54,0,0,0,397.06,110Z" style="fill:#e0e0e0"></path><path d="M351,115.61l-1.64.9a.42.42,0,0,1-.59-.53l.72-1.72a.42.42,0,0,0-.1-.47L348,112.51a.42.42,0,0,1,.32-.73l1.87.16a.42.42,0,0,0,.41-.24l.8-1.69a.42.42,0,0,1,.79.08l.42,1.82a.43.43,0,0,0,.36.32l1.86.24a.42.42,0,0,1,.16.77l-1.6,1a.41.41,0,0,0-.19.44l.35,1.84a.42.42,0,0,1-.69.4l-1.41-1.23A.44.44,0,0,0,351,115.61Z" style="fill:#fafafa"></path><path d="M361.84,116.76l-1.64.9a.42.42,0,0,1-.59-.53l.73-1.73a.42.42,0,0,0-.1-.47l-1.37-1.28a.42.42,0,0,1,.33-.72l1.86.15a.42.42,0,0,0,.42-.24l.79-1.69a.42.42,0,0,1,.79.09l.43,1.81a.43.43,0,0,0,.36.33l1.85.23a.42.42,0,0,1,.17.78l-1.6,1a.42.42,0,0,0-.2.44l.35,1.83a.42.42,0,0,1-.69.4l-1.41-1.22A.41.41,0,0,0,361.84,116.76Z" style="fill:#fafafa"></path><path d="M372.73,117.9l-1.64.9a.42.42,0,0,1-.59-.53l.72-1.72a.42.42,0,0,0-.1-.47l-1.36-1.28a.42.42,0,0,1,.32-.73l1.87.16a.42.42,0,0,0,.41-.24l.8-1.69a.42.42,0,0,1,.79.08l.43,1.82a.41.41,0,0,0,.35.32l1.86.23a.42.42,0,0,1,.16.78l-1.6,1a.43.43,0,0,0-.19.44l.35,1.84a.42.42,0,0,1-.69.39L373.21,118A.44.44,0,0,0,372.73,117.9Z" style="fill:#fafafa"></path><path d="M383.61,119.05,382,120a.43.43,0,0,1-.6-.54l.73-1.72a.42.42,0,0,0-.1-.47l-1.36-1.28a.42.42,0,0,1,.32-.73l1.86.16a.42.42,0,0,0,.42-.24l.79-1.69a.43.43,0,0,1,.8.08l.42,1.82a.44.44,0,0,0,.36.33l1.85.23a.42.42,0,0,1,.17.78l-1.6,1a.44.44,0,0,0-.2.44l.35,1.84a.42.42,0,0,1-.68.4l-1.42-1.22A.41.41,0,0,0,383.61,119.05Z" style="fill:#fafafa"></path><path d="M394.5,120.19l-1.64.9a.42.42,0,0,1-.59-.53l.72-1.72a.43.43,0,0,0-.1-.48l-1.36-1.27a.42.42,0,0,1,.33-.73l1.86.16a.42.42,0,0,0,.41-.24l.8-1.7a.42.42,0,0,1,.79.09l.43,1.82a.41.41,0,0,0,.35.32l1.86.23a.42.42,0,0,1,.16.78l-1.59,1a.42.42,0,0,0-.2.44l.35,1.83a.42.42,0,0,1-.69.4L395,120.24A.41.41,0,0,0,394.5,120.19Z" style="fill:#fafafa"></path><path d="M89,289.17h1.78c0-21.89,7.72-39.7,17.21-39.7s17.22,17.81,17.22,39.7H127c0-23.25-8.52-42.17-19-42.17S89,265.92,89,289.17Z" style="fill:#e0e0e0"></path><path d="M77.81,289.17h1.77c0-21.89,7.73-39.7,17.22-39.7S114,267.28,114,289.17h1.77c0-23.25-8.52-42.17-19-42.17S77.81,265.92,77.81,289.17Z" style="fill:#e0e0e0"></path><polygon points="63.69 282.86 125.7 282.86 132.79 383.01 51.29 383.01 63.69 282.86" style="fill:#e0e0e0"></polygon><polygon points="74.32 282.86 141.65 282.86 148.73 383.01 67.23 383.01 74.32 282.86" style="fill:#f0f0f0"></polygon><rect x="83.18" y="319.95" width="46.06" height="25.97" transform="translate(212.42 665.87) rotate(180)" style="fill:#fafafa"></rect><path d="M169,305.81h1.46c0-18,6.35-32.65,14.16-32.65s14.16,14.65,14.16,32.65h1.46c0-19.12-7-34.69-15.62-34.69S169,286.69,169,305.81Z" style="fill:#e0e0e0"></path><path d="M159.75,305.81h1.46c0-18,6.35-32.65,14.16-32.65s14.16,14.65,14.16,32.65H191c0-19.12-7-34.69-15.62-34.69S159.75,286.69,159.75,305.81Z" style="fill:#e0e0e0"></path><polygon points="148.13 300.62 199.15 300.62 204.97 383.01 137.93 383.01 148.13 300.62" style="fill:#e0e0e0"></polygon><polygon points="156.88 300.62 212.26 300.62 218.09 383.01 151.05 383.01 156.88 300.62" style="fill:#f5f5f5"></polygon><rect x="164.17" y="331.13" width="37.89" height="21.36" transform="translate(366.23 683.63) rotate(180)" style="fill:#e0e0e0"></rect></g><g id="freepik--Shadow--inject-20"><ellipse id="freepik--path--inject-20" cx="250" cy="412.39" rx="193.89" ry="11.32" style="fill:#f5f5f5"></ellipse></g><g id="freepik--Device--inject-20"><path d="M318.68,95H297.27V341.83h21.41a18,18,0,0,0,18-18V113A18,18,0,0,0,318.68,95Z" style="fill:#263238"></path><path d="M334.11,119.76a1.73,1.73,0,1,1,3.45,0v16.53a1.73,1.73,0,0,1-3.45,0Z" style="fill:#92E3A9"></path><path d="M334.11,119.76a1.73,1.73,0,1,1,3.45,0v16.53a1.73,1.73,0,0,1-3.45,0Z" style="fill:#fff;opacity:0.30000000000000004"></path><path d="M314.3,341.83H173.62a18,18,0,0,1-18-18V113a18,18,0,0,1,18-18H314.3a18,18,0,0,1,18,18V323.85A18,18,0,0,1,314.3,341.83Z" style="fill:#92E3A9"></path><rect x="161.15" y="112.66" width="164.54" height="211.5" transform="translate(486.84 436.83) rotate(180)" style="fill:#fff;opacity:0.6000000000000001"></rect><path d="M240.22,104.76a3.21,3.21,0,1,0,3.2-3.2A3.21,3.21,0,0,0,240.22,104.76Z" style="opacity:0.2"></path><path d="M269.14,149.76a10.38,10.38,0,0,0,10.51,11.75,13.36,13.36,0,0,0,13-11.75L293.87,138H270.38Z" style="fill:#92E3A9"></path><path d="M222.16,149.76a10.37,10.37,0,0,0,10.51,11.75,13.37,13.37,0,0,0,13-11.75L246.88,138H223.39Z" style="fill:#92E3A9"></path><path d="M175.17,149.76a10.38,10.38,0,0,0,10.51,11.75,13.36,13.36,0,0,0,13-11.75L199.9,138H176.41Z" style="fill:#92E3A9"></path><path d="M292.63,149.76a10.39,10.39,0,0,0,10.52,11.75,13.38,13.38,0,0,0,13-11.75L317.36,138H293.87Z" style="fill:#92E3A9"></path><path d="M245.65,149.76a10.38,10.38,0,0,0,10.51,11.75,13.36,13.36,0,0,0,13-11.75L270.38,138h-23.5Z" style="fill:#92E3A9"></path><path d="M198.66,149.76a10.38,10.38,0,0,0,10.51,11.75,13.38,13.38,0,0,0,13-11.75L223.39,138H199.9Z" style="fill:#92E3A9"></path><path d="M151.68,149.76a10.38,10.38,0,0,0,10.51,11.75,13.36,13.36,0,0,0,13-11.75L176.41,138h-23.5Z" style="fill:#92E3A9"></path><g style="opacity:0.9"><path d="M292.63,149.76a10.39,10.39,0,0,0,10.52,11.75,13.38,13.38,0,0,0,13-11.75L317.36,138H293.87Z" style="fill:#fff"></path><path d="M245.65,149.76a10.38,10.38,0,0,0,10.51,11.75,13.36,13.36,0,0,0,13-11.75L270.38,138h-23.5Z" style="fill:#fff"></path><path d="M198.66,149.76a10.38,10.38,0,0,0,10.51,11.75,13.38,13.38,0,0,0,13-11.75L223.39,138H199.9Z" style="fill:#fff"></path><path d="M151.68,149.76a10.38,10.38,0,0,0,10.51,11.75,13.36,13.36,0,0,0,13-11.75L176.41,138h-23.5Z" style="fill:#fff"></path></g><polygon points="152.91 138.01 317.45 138.01 325.26 112.66 160.72 112.66 152.91 138.01" style="fill:#92E3A9"></polygon><polygon points="152.91 138.01 317.45 138.01 325.26 112.66 160.72 112.66 152.91 138.01" style="opacity:0.2"></polygon><g style="opacity:0.2"><path d="M269.94,334h-53a1.25,1.25,0,0,1,0-2.5h53a1.25,1.25,0,0,1,0,2.5Z"></path></g><rect x="176.25" y="164.98" width="64.2" height="64.2" rx="5.54" style="opacity:0.2"></rect><rect x="173.68" y="162.41" width="64.2" height="64.2" rx="5.54" style="fill:#92E3A9"></rect><path d="M183.84,177.47l-2.89,2a.8.8,0,0,1-1.22-.88l1-3.37a.79.79,0,0,0-.28-.87l-2.81-2.13a.8.8,0,0,1,.47-1.43l3.52-.07a.8.8,0,0,0,.74-.53l1.16-3.34a.79.79,0,0,1,1.5,0l1.16,3.34a.8.8,0,0,0,.73.53l3.53.07a.8.8,0,0,1,.46,1.43l-2.81,2.13a.82.82,0,0,0-.28.87l1,3.37a.79.79,0,0,1-1.21.88l-2.9-2A.8.8,0,0,0,183.84,177.47Z" style="fill:#fff"></path><path d="M208.49,188.85l15.73.3a1.44,1.44,0,0,1,1.4,1.16l3,14.77a2.41,2.41,0,0,1-1.87,2.87,2.15,2.15,0,0,1-.51.05c-6.51-.23-12.3-.7-20.42-.84-9.58-.18-7.17,1-18.43,1-6.79,0-7.88-7.77-5-8.09,13.2-1.42,17-5.33,22.15-9.94A5.78,5.78,0,0,1,208.49,188.85Z" style="fill:#263238"></path><path d="M205.89,203.12c2.66,0,4.3-2,5.63-3.55.71-.86,1.52-1.82,2-1.82h13.56l-.5-2.46H213.57c-1.67,0-2.82,1.37-3.93,2.7s-2.24,2.67-3.75,2.67Z" style="fill:#fff"></path><rect x="173.68" y="235.98" width="40.42" height="7.71" rx="3" style="fill:#263238"></rect><rect x="173.68" y="235.98" width="40.42" height="7.71" rx="3" style="fill:#fff;opacity:0.4"></rect><rect x="225.1" y="235.98" width="13.95" height="7.71" rx="3" style="fill:#92E3A9"></rect><rect x="261.14" y="173.59" width="51.36" height="51.36" rx="5.54" style="opacity:0.2"></rect><rect x="259.09" y="171.54" width="51.36" height="51.36" rx="5.54" style="fill:#92E3A9"></rect><rect x="259.09" y="171.54" width="51.36" height="51.36" rx="5.54" style="fill:#fff;opacity:0.8"></rect><path d="M267.69,185.31,265.32,187a.65.65,0,0,1-1-.72l.84-2.77a.66.66,0,0,0-.23-.71L262.62,181a.65.65,0,0,1,.38-1.17l2.89-.06a.66.66,0,0,0,.61-.44l.95-2.74a.65.65,0,0,1,1.23,0l.95,2.74a.66.66,0,0,0,.61.44l2.89.06a.65.65,0,0,1,.38,1.17l-2.31,1.75a.66.66,0,0,0-.23.71l.84,2.77a.65.65,0,0,1-1,.72l-2.37-1.65A.65.65,0,0,0,267.69,185.31Z" style="fill:#92E3A9"></path><rect x="259.09" y="230.39" width="32.34" height="6.17" rx="3" style="fill:#263238"></rect><rect x="259.09" y="230.39" width="32.34" height="6.17" rx="3" style="fill:#fff;opacity:0.4"></rect><rect x="300.22" y="230.39" width="11.16" height="6.17" rx="3" style="fill:#92E3A9"></rect><path d="M283.54,194.08c-2.35,5.06-7.21,6.87-17.83,8-2.32.26-1.44,6.48,4,6.51,9.07.05,7.13-.91,14.84-.77,6.53.11,11.19.49,16.44.68a2.71,2.71,0,0,0,.41,0,2,2,0,0,0,1.51-2.31s-2.11-8.88-2.41-11.89c-.19-1.87,0-7.49,0-7.49H283.74S284.31,192.43,283.54,194.08Z" style="fill:#92E3A9"></path><g style="opacity:0.4"><path d="M283.54,194.08c-2.35,5.06-7.21,6.87-17.83,8-2.32.26-1.44,6.48,4,6.51,9.07.05,7.13-.91,14.84-.77,6.53.11,11.19.49,16.44.68a2.71,2.71,0,0,0,.41,0,2,2,0,0,0,1.51-2.31s-2.11-8.88-2.41-11.89c-.19-1.87,0-7.49,0-7.49H283.74S284.31,192.43,283.54,194.08Z"></path></g><path d="M302.93,206.16s-.27-1.15-.63-2.74c-2.2.17-9.83.68-21.56.68-9.67,0-13.14-1.29-14.36-2.09l-.67.08c-1.54.17-1.66,3,0,4.84v1.73l1.1,1.11,1-1,1,1,1-1,1,1,1-1,1,1,1-1,1,1,1-1,1,1,1-1,1,1,1.11-1.11v-.77c1-.06,2.35-.1,4.26-.06s3.86.1,5.6.17v.66l1.1,1.11,1-1,1,1,1-1,1,1,1-1,1,1,1-1,1,1,1-1,1,1,1.11-1.11v-1.11A2,2,0,0,0,302.93,206.16Z" style="fill:#263238"></path><path d="M302.93,206.16s-.27-1.15-.63-2.74c-2.2.17-9.83.68-21.56.68-9.67,0-13.14-1.29-14.36-2.09l-.67.08c-1.54.17-1.66,3,0,4.84v1.73l1.1,1.11,1-1,1,1,1-1,1,1,1-1,1,1,1-1,1,1,1-1,1,1,1-1,1,1,1.11-1.11v-.77c1-.06,2.35-.1,4.26-.06s3.86.1,5.6.17v.66l1.1,1.11,1-1,1,1,1-1,1,1,1-1,1,1,1-1,1,1,1-1,1,1,1.11-1.11v-1.11A2,2,0,0,0,302.93,206.16Z" style="fill:#fff;opacity:0.5"></path><rect x="261.14" y="252.38" width="51.36" height="51.36" rx="5.54" style="opacity:0.2"></rect><rect x="259.09" y="250.32" width="51.36" height="51.36" rx="5.54" style="fill:#92E3A9"></rect><rect x="259.09" y="250.32" width="51.36" height="51.36" rx="5.54" style="fill:#fff;opacity:0.8"></rect><path d="M267.69,263.16l-2.37,1.65a.65.65,0,0,1-1-.72l.84-2.77a.66.66,0,0,0-.23-.71l-2.31-1.75a.66.66,0,0,1,.38-1.18l2.89-.05a.66.66,0,0,0,.61-.44l.95-2.74a.65.65,0,0,1,1.23,0l.95,2.74a.66.66,0,0,0,.61.44l2.89.05a.66.66,0,0,1,.38,1.18l-2.31,1.75a.66.66,0,0,0-.23.71l.84,2.77a.65.65,0,0,1-1,.72l-2.37-1.65A.65.65,0,0,0,267.69,263.16Z" style="fill:#92E3A9"></path><rect x="259.09" y="309.18" width="32.34" height="6.17" rx="3" style="fill:#263238"></rect><rect x="259.09" y="309.18" width="32.34" height="6.17" rx="3" style="fill:#fff;opacity:0.4"></rect><rect x="300.22" y="309.18" width="11.16" height="6.17" rx="3" style="fill:#92E3A9"></rect><path d="M287.72,271.8l12.49.24a1.14,1.14,0,0,1,1.11.92l2.38,11.73a1.91,1.91,0,0,1-1.49,2.27,1.33,1.33,0,0,1-.4,0c-5.17-.18-9.77-.55-16.21-.66-7.61-.14-5.7.8-14.64.76-5.38,0-6.25-6.17-4-6.43,10.47-1.12,13.48-4.22,17.58-7.89A4.62,4.62,0,0,1,287.72,271.8Z" style="fill:#263238"></path><path d="M277.5,270.9l-.18.3a1.21,1.21,0,0,0,0,1.25c1,1.61,6.34,1.64,7.4,1.63a.4.4,0,0,0,.39-.26.41.41,0,0,0-.09-.46c-1.4-1.41-4-3.71-6-3.42A2.14,2.14,0,0,0,277.5,270.9Zm6.15,2.32c-2.34-.08-5.15-.45-5.61-1.21-.05-.08-.08-.19,0-.41a1.42,1.42,0,0,1,1.05-.82C280.14,270.63,281.8,271.53,283.65,273.22Z" style="fill:#92E3A9"></path><path d="M278.15,275.71a1.41,1.41,0,0,0-.17.32,1.22,1.22,0,0,0,.5,1.47,2,2,0,0,0,1.59.42c2.28-.31,4.88-3.86,5-4a.43.43,0,0,0-.32-.68C283.07,273.14,279.16,274.24,278.15,275.71Zm5.66-1.58c-.95,1.13-2.58,2.77-3.85,2.95a1.21,1.21,0,0,1-.95-.25c-.33-.26-.27-.42-.23-.5C279.1,275.46,281.9,274.37,283.81,274.13Z" style="fill:#92E3A9"></path><rect x="180.41" y="252.38" width="51.36" height="51.36" rx="5.54" style="opacity:0.2"></rect><rect x="178.36" y="250.32" width="51.36" height="51.36" rx="5.54" style="fill:#92E3A9"></rect><rect x="178.36" y="250.32" width="51.36" height="51.36" rx="5.54" style="fill:#fff;opacity:0.8"></rect><path d="M185.69,263.16l-2.37,1.65a.65.65,0,0,1-1-.72l.84-2.77a.64.64,0,0,0-.23-.71l-2.31-1.75a.66.66,0,0,1,.38-1.18l2.9-.05a.66.66,0,0,0,.6-.44l.95-2.74a.65.65,0,0,1,1.23,0l.95,2.74a.66.66,0,0,0,.61.44l2.89.05a.66.66,0,0,1,.38,1.18l-2.3,1.75a.64.64,0,0,0-.23.71l.83,2.77a.65.65,0,0,1-1,.72l-2.37-1.65A.65.65,0,0,0,185.69,263.16Z" style="fill:#92E3A9"></path><rect x="178.36" y="309.18" width="32.34" height="6.17" rx="3" style="fill:#263238"></rect><rect x="178.36" y="309.18" width="32.34" height="6.17" rx="3" style="fill:#fff;opacity:0.4"></rect><rect x="219.49" y="309.18" width="11.16" height="6.17" rx="3" style="fill:#92E3A9"></rect><path d="M207.08,271.09l12.91.25a1.2,1.2,0,0,1,1.15,1l2.46,12.12a2,2,0,0,1-2,2.39c-5.34-.19-10.1-.57-16.75-.69-7.86-.14-5.89.83-15.13.79-5.57,0-6.47-6.38-4.1-6.64,10.83-1.16,13.94-4.37,18.18-8.16A4.8,4.8,0,0,1,207.08,271.09Z" style="fill:#92E3A9"></path><g style="opacity:0.2"><path d="M207.08,271.09l12.91.25a1.2,1.2,0,0,1,1.15,1l2.46,12.12a2,2,0,0,1-2,2.39c-5.34-.19-10.1-.57-16.75-.69-7.86-.14-5.89.83-15.13.79-5.57,0-6.47-6.38-4.1-6.64,10.83-1.16,13.94-4.37,18.18-8.16A4.8,4.8,0,0,1,207.08,271.09Z"></path></g><path d="M222.06,286.77a2,2,0,0,0,1.54-2.35l-.9-4.44a15.76,15.76,0,0,0-3.47,4.21,117.08,117.08,0,0,1-12.85-.75,39.93,39.93,0,0,0-12.18.75,7,7,0,0,0-2.61-4.93,44.49,44.49,0,0,1-5.93,1c-2.37.26-1.47,6.61,4.1,6.64,9.24,0,7.27-.93,15.13-.79,6.65.12,11.41.5,16.75.69A2,2,0,0,0,222.06,286.77Z" style="fill:#fff;opacity:0.5"></path><g style="opacity:0.5"><path d="M205.46,274.26l-1.84-2c-.45.41-.89.81-1.34,1.2l1.87,2a.9.9,0,0,0,1.31-1.23Z"></path><path d="M197.36,280.61a.9.9,0,0,0,0-1.27L196,277.79c-.56.25-1.15.49-1.79.71l1.93,2.07A.9.9,0,0,0,197.36,280.61Z"></path><path d="M200.52,278.58a.9.9,0,0,0,1.31-1.22l-1.84-2c-.47.35-1,.69-1.49,1Z"></path></g><path d="M215.52,277.13a3.22,3.22,0,1,1-3.22-3.21A3.22,3.22,0,0,1,215.52,277.13Z" style="fill:#fff;opacity:0.5"></path></g><g id="freepik--Cart--inject-20"><rect x="317.5" y="304.2" width="44.11" height="3.16" rx="1.58" style="fill:#263238"></rect><g style="opacity:0.5"><rect x="317.5" y="304.2" width="44.11" height="3.16" rx="1.58" style="fill:#fff"></rect></g><rect x="317.92" y="304.2" width="3.16" height="24.09" rx="1.58" style="fill:#263238"></rect><g style="opacity:0.7000000000000001"><rect x="317.92" y="304.2" width="3.16" height="24.09" rx="1.58" style="fill:#fff"></rect></g><rect x="358.46" y="304.2" width="3.16" height="24.09" rx="1.58" style="fill:#263238"></rect><g style="opacity:0.7000000000000001"><rect x="358.46" y="304.2" width="3.16" height="24.09" rx="1.58" style="fill:#fff"></rect></g><rect x="356.09" y="306.29" width="64.2" height="64.2" rx="5.54" transform="translate(745.41 709.32) rotate(-175)" style="fill:#92E3A9"></rect><rect x="356.09" y="306.29" width="64.2" height="64.2" rx="5.54" transform="translate(745.41 709.32) rotate(-175)" style="opacity:0.5"></rect><rect x="358.88" y="303.95" width="64.2" height="64.2" rx="5.54" transform="translate(751.18 704.9) rotate(-175)" style="fill:#92E3A9"></rect><rect x="358.88" y="303.95" width="64.2" height="64.2" rx="5.54" transform="translate(751.18 704.9) rotate(-175)" style="fill:#fff;opacity:0.30000000000000004"></rect><path d="M388.77,330.17l-15.7-1.07a1.46,1.46,0,0,0-1.49,1l-4.27,14.45a2.41,2.41,0,0,0,1.61,3,2.11,2.11,0,0,0,.5.1c6.52.33,12.32.37,20.42.94,9.56.66,7.05,1.64,18.28,2.57,6.76.55,8.53-7.06,5.68-7.63-13-2.56-16.45-6.79-21.2-11.84A5.86,5.86,0,0,0,388.77,330.17Z" style="fill:#fff"></path><path d="M390.11,344.62c-2.64-.23-4.11-2.34-5.29-4-.64-.91-1.36-1.95-1.88-2l-13.51-1.18.71-2.41,13,1.14c1.67.15,2.69,1.61,3.68,3s2,2.86,3.5,3Z" style="fill:#92E3A9"></path><path d="M328.75,376.74h0a1.48,1.48,0,0,0,1.19-1.73l-8.71-47a1.48,1.48,0,0,0-1.73-1.19h0a1.48,1.48,0,0,0-1.18,1.73l8.7,47A1.49,1.49,0,0,0,328.75,376.74Z" style="fill:#263238"></path><path d="M346.63,376.74h0a1.48,1.48,0,0,0,1.29-1.65l-5.8-47a1.48,1.48,0,0,0-1.65-1.29h0a1.48,1.48,0,0,0-1.29,1.65l5.8,47A1.48,1.48,0,0,0,346.63,376.74Z" style="fill:#263238"></path><path d="M364.51,376.74h0a1.48,1.48,0,0,0,1.39-1.57l-2.9-47a1.49,1.49,0,0,0-1.57-1.39h0a1.49,1.49,0,0,0-1.39,1.57l2.9,47A1.48,1.48,0,0,0,364.51,376.74Z" style="fill:#263238"></path><rect x="380.91" y="326.8" width="2.97" height="49.94" rx="1.48" style="fill:#263238"></rect><g style="opacity:0.5"><path d="M328.75,376.74h0a1.48,1.48,0,0,0,1.19-1.73l-8.71-47a1.48,1.48,0,0,0-1.73-1.19h0a1.48,1.48,0,0,0-1.18,1.73l8.7,47A1.49,1.49,0,0,0,328.75,376.74Z" style="fill:#fff"></path><path d="M346.63,376.74h0a1.48,1.48,0,0,0,1.29-1.65l-5.8-47a1.48,1.48,0,0,0-1.65-1.29h0a1.48,1.48,0,0,0-1.29,1.65l5.8,47A1.48,1.48,0,0,0,346.63,376.74Z" style="fill:#fff"></path><path d="M364.51,376.74h0a1.48,1.48,0,0,0,1.39-1.57l-2.9-47a1.49,1.49,0,0,0-1.57-1.39h0a1.49,1.49,0,0,0-1.39,1.57l2.9,47A1.48,1.48,0,0,0,364.51,376.74Z" style="fill:#fff"></path><rect x="380.91" y="326.8" width="2.97" height="49.94" rx="1.48" style="fill:#fff"></rect></g><rect x="319.5" y="325.32" width="62.89" height="2.97" rx="1.48" style="fill:#263238"></rect><rect x="322.59" y="341.96" width="59.8" height="2.97" rx="1.48" style="fill:#263238"></rect><rect x="325.67" y="358.61" width="56.72" height="2.97" rx="1.48" style="fill:#263238"></rect><rect x="328.75" y="375.26" width="53.64" height="2.97" rx="1.48" style="fill:#263238"></rect><g style="opacity:0.7000000000000001"><rect x="319.5" y="325.32" width="62.89" height="2.97" rx="1.48" style="fill:#fff"></rect><rect x="322.59" y="341.96" width="59.8" height="2.97" rx="1.48" style="fill:#fff"></rect><rect x="325.67" y="358.61" width="56.72" height="2.97" rx="1.48" style="fill:#fff"></rect><rect x="328.75" y="375.26" width="53.64" height="2.97" rx="1.48" style="fill:#fff"></rect></g><rect x="382.55" y="325.32" width="50.65" height="2.97" rx="1.48" style="fill:#263238"></rect><rect x="382.55" y="341.96" width="47.57" height="2.97" rx="1.48" style="fill:#263238"></rect><rect x="382.55" y="358.61" width="44.49" height="2.97" rx="1.48" style="fill:#263238"></rect><rect x="382.55" y="375.26" width="41.4" height="2.97" rx="1.48" style="fill:#263238"></rect><g style="opacity:0.5"><rect x="382.55" y="325.32" width="50.65" height="2.97" rx="1.48" style="fill:#fff"></rect><rect x="382.55" y="341.96" width="47.57" height="2.97" rx="1.48" style="fill:#fff"></rect><rect x="382.55" y="358.61" width="44.49" height="2.97" rx="1.48" style="fill:#fff"></rect><rect x="382.55" y="375.26" width="41.4" height="2.97" rx="1.48" style="fill:#fff"></rect></g><rect x="327.59" y="395.95" width="57.11" height="3.16" rx="1.58" style="fill:#263238"></rect><g style="opacity:0.5"><rect x="327.59" y="395.95" width="57.11" height="3.16" rx="1.58" style="fill:#fff"></rect></g><rect x="384.87" y="395.95" width="44.09" height="3.16" rx="1.58" style="fill:#263238"></rect><g style="opacity:0.7000000000000001"><rect x="384.87" y="395.95" width="44.09" height="3.16" rx="1.58" style="fill:#fff"></rect></g><rect x="327.17" y="375.07" width="3.16" height="24.09" rx="1.58" style="fill:#263238"></rect><g style="opacity:0.7000000000000001"><rect x="327.17" y="375.07" width="3.16" height="24.09" rx="1.58" style="fill:#fff"></rect></g><path d="M424,376.74h0a1.49,1.49,0,0,1-1.19-1.73l8.71-47a1.49,1.49,0,0,1,1.73-1.19h0a1.48,1.48,0,0,1,1.19,1.73l-8.71,47A1.48,1.48,0,0,1,424,376.74Z" style="fill:#263238"></path><path d="M410.89,376.74h0a1.48,1.48,0,0,1-1.29-1.65l5.8-47a1.49,1.49,0,0,1,1.66-1.29h0a1.48,1.48,0,0,1,1.29,1.65l-5.8,47A1.49,1.49,0,0,1,410.89,376.74Z" style="fill:#263238"></path><path d="M396.35,376.74h0a1.48,1.48,0,0,1-1.39-1.57l2.9-47a1.48,1.48,0,0,1,1.57-1.39h0a1.49,1.49,0,0,1,1.39,1.57l-2.9,47A1.48,1.48,0,0,1,396.35,376.74Z" style="fill:#263238"></path><rect x="381.07" y="326.8" width="2.97" height="49.94" rx="1.48" style="fill:#263238"></rect><g style="opacity:0.7000000000000001"><path d="M424,376.74h0a1.49,1.49,0,0,1-1.19-1.73l8.71-47a1.49,1.49,0,0,1,1.73-1.19h0a1.48,1.48,0,0,1,1.19,1.73l-8.71,47A1.48,1.48,0,0,1,424,376.74Z" style="fill:#fff"></path><path d="M410.89,376.74h0a1.48,1.48,0,0,1-1.29-1.65l5.8-47a1.49,1.49,0,0,1,1.66-1.29h0a1.48,1.48,0,0,1,1.29,1.65l-5.8,47A1.49,1.49,0,0,1,410.89,376.74Z" style="fill:#fff"></path><path d="M396.35,376.74h0a1.48,1.48,0,0,1-1.39-1.57l2.9-47a1.48,1.48,0,0,1,1.57-1.39h0a1.49,1.49,0,0,1,1.39,1.57l-2.9,47A1.48,1.48,0,0,1,396.35,376.74Z" style="fill:#fff"></path><rect x="381.07" y="326.8" width="2.97" height="49.94" rx="1.48" style="fill:#fff"></rect></g><path d="M420.93,407.51A6.11,6.11,0,1,0,427,401.4,6.11,6.11,0,0,0,420.93,407.51Z" style="fill:#263238"></path><path d="M424,407.51a3.09,3.09,0,1,0,3.09-3.08A3.08,3.08,0,0,0,424,407.51Z" style="fill:#fff;opacity:0.5"></path><path d="M378.76,407.51a6.11,6.11,0,1,0,6.11-6.11A6.11,6.11,0,0,0,378.76,407.51Z" style="fill:#263238"></path><path d="M381.78,407.51a3.09,3.09,0,1,0,3.09-3.08A3.08,3.08,0,0,0,381.78,407.51Z" style="fill:#fff;opacity:0.5"></path><path d="M322.64,407.51a6.11,6.11,0,1,0,6.11-6.11A6.12,6.12,0,0,0,322.64,407.51Z" style="fill:#263238"></path><path d="M325.67,407.51a3.08,3.08,0,1,0,3.08-3.08A3.08,3.08,0,0,0,325.67,407.51Z" style="fill:#fff;opacity:0.5"></path></g><g id="freepik--Character--inject-20"><path d="M130.27,146.33c-.25,2.79,1.18,5,3.18,5s3.82-2.26,4.07-5-1.18-5.05-3.19-5.05S130.51,143.54,130.27,146.33Z" style="fill:#92E3A9"></path><path d="M132.68,132.59s2.42,1.07,1.61,3.16c0,0,3.43,4.6,0,5.53l-3.7-7.8Z" style="fill:#263238"></path><path d="M129.05,146.33c-.24,2.79,1.19,5,3.19,5s3.82-2.26,4.06-5-1.18-5.05-3.18-5.05S129.3,143.54,129.05,146.33Z" style="opacity:0.5"></path><polygon points="166.22 404.05 172.91 401.88 168.75 386.1 162.06 388.27 166.22 404.05" style="fill:#ce7a63"></polygon><path d="M173,401l-7.52,2.44a.5.5,0,0,0-.34.62l1.56,6.06a1.25,1.25,0,0,0,1.56.81c2.6-.89,3.8-1.45,7.11-2.53,2-.66,10.75-3.25,13.56-4.16s1.83-3.66.55-3.53c-5.7.6-12.82,1.2-15.19.32A2,2,0,0,0,173,401Z" style="fill:#92E3A9"></path><polygon points="162.06 388.27 168.76 386.1 170.9 394.24 164.2 396.41 162.06 388.27" style="opacity:0.2"></polygon><path d="M145.75,228.53s9.51,57.27,12.32,77.25c3.08,21.87,15.2,85.85,15.2,85.85l-12.42,3.43s-17.74-62-22.77-83.26c-5.46-23.08-17.47-83.27-17.47-83.27Z" style="fill:#263238"></path><path d="M130.5,252c4.86,12.14,5.41,32.77,3.44,41.22-3-13.88-6.4-30.49-9-43.4C125.85,246.52,127.55,244.64,130.5,252Z" style="opacity:0.5"></path><polygon points="160.53 395.31 173.84 391.64 173.58 386.23 158.6 391.4 160.53 395.31" style="fill:#263238"></polygon><path d="M175.76,401.38a8.45,8.45,0,0,1-1.86.34.16.16,0,0,1-.16-.08.17.17,0,0,1,0-.18c.16-.22,1.64-2.13,2.56-2.07a.62.62,0,0,1,.51.32.89.89,0,0,1,.07.91A1.85,1.85,0,0,1,175.76,401.38Zm-1.5,0c1.27-.15,2.14-.48,2.35-.89a.57.57,0,0,0-.07-.59.26.26,0,0,0-.24-.16C175.8,399.69,174.87,400.61,174.26,401.36Z" style="fill:#92E3A9"></path><path d="M173.94,401.72h-.08a.15.15,0,0,1-.12-.1c0-.08-.81-1.95-.35-2.82a.82.82,0,0,1,.59-.43.63.63,0,0,1,.72.28c.39.68-.15,2.4-.69,3A.18.18,0,0,1,173.94,401.72Zm0-3a.49.49,0,0,0-.29.24,3.74,3.74,0,0,0,.25,2.27,3.26,3.26,0,0,0,.49-2.4c0-.09-.14-.18-.37-.13Z" style="fill:#92E3A9"></path><path d="M148.21,170.69c1.86,4,3.9,8.15,6,12.05,1.05,2,2.16,3.88,3.31,5.7a36.58,36.58,0,0,0,3.57,4.87,9.08,9.08,0,0,0,1.49,1.36c.07.06.11.07.08.07s.08,0,.13.08a5.41,5.41,0,0,0,.95.14,29.11,29.11,0,0,0,6-.48c4.31-.72,8.84-1.8,13.26-2.86l2,4.8a72.8,72.8,0,0,1-13.27,6,32.15,32.15,0,0,1-7.85,1.67,13.81,13.81,0,0,1-2.54-.06,10,10,0,0,1-1.57-.34,9.21,9.21,0,0,1-1.53-.6,16.57,16.57,0,0,1-4-2.91,41.08,41.08,0,0,1-5.11-6.09c-1.46-2.06-2.75-4.15-4-6.25s-2.38-4.23-3.44-6.4-2.11-4.28-3.08-6.6Z" style="fill:#ce7a63"></path><path d="M159.64,187.8l-11.12,8.3s-.43-.47-1.14-1.28l-1.94-2.32c-4.32-5.26-10.64-14.87-10.69-19.58-.07-7,7.21-8,15.38-.87,3.53,3.1,5.37,8.24,7.16,11.42.59,1.05,1.09,2,1.48,2.68Z" style="fill:#92E3A9"></path><path d="M159.64,187.8l-11.12,8.3s-.43-.47-1.14-1.28l-1.94-2.32c-4.32-5.26-10.64-14.87-10.69-19.58-.07-7,7.21-8,15.38-.87,3.53,3.1,5.37,8.24,7.16,11.42.59,1.05,1.09,2,1.48,2.68Z" style="opacity:0.5"></path><polygon points="99.03 407.13 106.06 407.13 108.4 390.83 101.36 390.83 99.03 407.13" style="fill:#ce7a63"></polygon><path d="M106.5,406.31H98.6a.57.57,0,0,0-.57.48l-.93,6.26a1.13,1.13,0,0,0,1.12,1.25c2.76-.05,4.09-.21,7.57-.21,2.13,0,11.21.22,14.16.22s3.12-2.92,1.89-3.18c-5.5-1.19-12.32-2.83-14.17-4.39A1.82,1.82,0,0,0,106.5,406.31Z" style="fill:#92E3A9"></path><polygon points="101.36 390.84 108.4 390.84 107.19 399.24 100.15 399.24 101.36 390.84" style="opacity:0.2"></polygon><path d="M133.15,228.17s-4,53.77-6.93,73.91c-3.18,22.06-15.83,95.13-15.83,95.13H97.5s6.62-71.29,7.76-93.13c1.23-23.7,3.61-75.91,3.61-75.91Z" style="fill:#263238"></path><polygon points="96.98 397.21 110.91 397.21 112.11 392.32 96.67 393.08 96.98 397.21" style="fill:#263238"></polygon><path d="M108.89,407.54a9.1,9.1,0,0,1-1.86-.25.16.16,0,0,1-.11-.13A.21.21,0,0,1,107,407c.24-.15,2.35-1.52,3.18-1.18a.56.56,0,0,1,.34.47,1,1,0,0,1-.28.89A2.06,2.06,0,0,1,108.89,407.54Zm-1.38-.49a3.34,3.34,0,0,0,2.52-.12.62.62,0,0,0,.17-.58.26.26,0,0,0-.16-.23C109.59,405.94,108.37,406.53,107.51,407.05Z" style="fill:#92E3A9"></path><path d="M107.07,407.29l-.07,0a.13.13,0,0,1-.08-.13c0-.09,0-2.11.79-2.79a.88.88,0,0,1,.72-.23.56.56,0,0,1,.55.49c.09.77-1.09,2.24-1.82,2.66Zm1.21-2.85a.56.56,0,0,0-.36.14,3.9,3.9,0,0,0-.66,2.24c.66-.52,1.45-1.64,1.39-2.14,0-.09-.06-.21-.29-.24Z" style="fill:#92E3A9"></path><path d="M134.68,173.73c2.51-1.66,4.35,2.64,9.31,6.27,2.21,1.62,7.07,12.18,6.67,14.51l-2.15,1.59S134.62,180.72,134.68,173.73Z" style="opacity:0.30000000000000004"></path><path d="M181.83,191.87l6.3-5.1,2.68,7.31s-6.67,3.84-8.26,2Z" style="fill:#ce7a63"></path><polygon points="195.28 187.96 195.83 193.53 190.81 194.08 188.13 186.77 195.28 187.96" style="fill:#ce7a63"></polygon><path d="M145.75,228.53H108.12c-.26-3.36.52-14.29-.06-28.21a179.25,179.25,0,0,0-3.74-30.69c-.17-.76-.34-1.51-.52-2.27,0,0,1.9-.39,4.64-.79,2.27-.33,5.11-.67,7.9-.8a139.73,139.73,0,0,1,16,0c2.46.22,4.86.63,6.78,1,2.45.49,3.89.92,3.89.92S152.27,189,145.75,228.53Z" style="fill:#92E3A9"></path><path d="M145.75,228.53H108.12c-.26-3.36.52-14.29-.06-28.21a179.25,179.25,0,0,0-3.74-30.69c-.17-.76-.34-1.51-.52-2.27,0,0,1.9-.39,4.64-.79,2.27-.33,5.11-.67,7.9-.8a139.73,139.73,0,0,1,16,0c2.46.22,4.86.63,6.78,1,2.45.49,3.89.92,3.89.92S152.27,189,145.75,228.53Z" style="opacity:0.5"></path><path d="M108.06,200.32a179.25,179.25,0,0,0-3.74-30.69c2.51-.22,6.81,0,7.52,4.09C112.61,178.09,111.65,188.35,108.06,200.32Z" style="opacity:0.30000000000000004"></path><path d="M111,176.75,105.24,191l-2.76,7.1c-.86,2.34-1.73,4.75-2.29,6.82a52.86,52.86,0,0,0-1.08,7c-.24,2.51-.51,5.05-.7,7.61-.43,5.12-.86,10.29-1.35,15.44l-5.2.11c-.68-5.23-1.13-10.43-1.38-15.69-.11-2.63-.21-5.27-.18-7.95a50,50,0,0,1,.57-8.46,73.3,73.3,0,0,1,2.1-8.1c.79-2.56,1.64-5.06,2.53-7.54,1.78-5,3.68-9.81,5.78-14.66Z" style="fill:#ce7a63"></path><path d="M113.13,180.17a130.68,130.68,0,0,1-6.1,14.28c-.5,1.05-1,2-1.34,2.73-.67,1.32-1.09,2.11-1.09,2.11L90.35,191.4s.18-.6.5-1.61c.25-.76.57-1.75,1-2.9,2.37-6.77,7.22-18.84,12-19.53C110.9,166.33,116,171.64,113.13,180.17Z" style="fill:#92E3A9"></path><path d="M113.13,180.17a130.68,130.68,0,0,1-6.1,14.28c-.5,1.05-1,2-1.34,2.73-.67,1.32-1.09,2.11-1.09,2.11L90.35,191.4s.18-.6.5-1.61c.25-.76.57-1.75,1-2.9,2.37-6.77,7.22-18.84,12-19.53C110.9,166.33,116,171.64,113.13,180.17Z" style="opacity:0.5"></path><path d="M125.86,170.11c-9-.16-10.13-4.31-10.13-4.31,3.48-3.43,2.14-12.82,1-18l4.28,3.55,5.83,4.84a19.73,19.73,0,0,0-.37,2.35c-.31,3.16.5,6,5.15,7.14,0,0,5.52,3.65-2.67,4.31Z" style="fill:#ce7a63"></path><path d="M126.79,156.22a19.73,19.73,0,0,0-.37,2.35c-2.17-.43-5.08-2.75-5.38-5a10.87,10.87,0,0,1-.08-2.22Z" style="opacity:0.2"></path><path d="M114.92,140.42c1.49,6.84,2,10.91,6,14a9.1,9.1,0,0,0,14.72-6.55c.54-6.37-2-16.49-9.18-18.43A9.21,9.21,0,0,0,114.92,140.42Z" style="fill:#ce7a63"></path><path d="M113.34,147.56a7.51,7.51,0,0,0,4.34,2.58c2.16.37,2.65-1.63,1.55-3.56-1-1.74-3.3-4-5.22-3.51S111.94,145.88,113.34,147.56Z" style="fill:#ce7a63"></path><path d="M125.71,141.1c.09.56.46,1,.83.93s.59-.53.51-1.09-.46-1-.83-.94S125.63,140.54,125.71,141.1Z" style="fill:#263238"></path><path d="M132.08,140.34c.09.56.46,1,.83.94s.59-.54.51-1.1-.46-1-.83-.94S132,139.78,132.08,140.34Z" style="fill:#263238"></path><path d="M130.1,140.86a21.39,21.39,0,0,0,3.43,4.48,3.23,3.23,0,0,1-2.61.82Z" style="fill:#ba4d3c"></path><path d="M128.85,148a4.87,4.87,0,0,1-3.54-1.46.17.17,0,1,1,.25-.22,4.69,4.69,0,0,0,3.91,1.31.17.17,0,1,1,0,.33A5.07,5.07,0,0,1,128.85,148Z" style="fill:#263238"></path><path d="M123.43,139.28a.29.29,0,0,1-.16,0,.33.33,0,0,1-.13-.45,3.19,3.19,0,0,1,2.49-1.69.34.34,0,0,1,0,.67,2.51,2.51,0,0,0-1.94,1.34A.34.34,0,0,1,123.43,139.28Z" style="fill:#263238"></path><path d="M134.48,137.83a.33.33,0,0,1-.27-.14,2.81,2.81,0,0,0-2.11-1.28.33.33,0,0,1-.33-.33.33.33,0,0,1,.34-.33h0a3.42,3.42,0,0,1,2.65,1.56.35.35,0,0,1-.09.47A.41.41,0,0,1,134.48,137.83Z" style="fill:#263238"></path><path d="M92.08,233.21l-3.14,6.38,8.79-1.18s1.76-6.14-1.48-6.79Z" style="fill:#ce7a63"></path><polygon points="91.39 245.75 98.6 244.43 97.73 238.41 88.94 239.59 91.39 245.75" style="fill:#ce7a63"></polygon><path d="M118.82,126.72s-3.69-8.38-6.4-1.38c0,0-6-4.24-6,1.66,0,0-5.14,1.33-1.28,5.25,0,0-4.45,2.72,0,5.94,0,0-1.93,4.91,2.53,5.33,0,0,0,6.36,3.83,2.81,0,0,.92,7.35,5.09,3.26l.5-4s3.24-2.25.91-9.59c0,0,10.18,1.93,8.34-1.16,0,0,9,.75,7.91-2.83,0,0,4.45-2.26,2.43-4.09,0,0,2.66-10.18-3.43-6.88,0,0-2.41-6.53-5.25-.66,0,0-3-.8-3.48,2.79,0,0-1.36-1-1.81,2.17Z" style="fill:#263238"></path><path d="M113.1,142.78v-7.34a10.09,10.09,0,0,1,7.19-9.67l2.46-.43a10.34,10.34,0,0,0-7.38,9.91v7.53Z" style="fill:#92E3A9"></path><path d="M118.79,146.33c.25,2.79-1.18,5-3.18,5s-3.82-2.26-4.07-5,1.18-5.05,3.19-5.05S118.55,143.54,118.79,146.33Z" style="fill:#92E3A9"></path><path d="M118.79,146.33c.25,2.79-1.18,5-3.18,5s-3.82-2.26-4.07-5,1.18-5.05,3.19-5.05S118.55,143.54,118.79,146.33Z" style="opacity:0.5"></path><path d="M117.58,146.33c.24,2.79-1.18,5-3.18,5s-3.83-2.26-4.07-5,1.18-5.05,3.18-5.05S117.34,143.54,117.58,146.33Z" style="fill:#92E3A9"></path><g style="opacity:0.5"><path d="M110.74,147.07c.37,1.44,1.39,2.52,2.5,2.52s1.94-1.08,2.05-2.52Z" style="fill:#fff"></path><path d="M115.17,145.59c-.37-1.44-1.39-2.52-2.5-2.52s-1.94,1.08-2.06,2.52Z" style="fill:#fff"></path></g></g></svg>
